<svg width="155" height="54" viewBox="0 0 155 54" fill="none" xmlns="http://www.w3.org/2000/svg">
<g clip-path="url(#clip0_71_3)">
<path d="M21.7674 44.6844H10.9039C3.63464 44.6844 0 40.7575 0 32.9038C0 25.0501 3.63464 21.1187 10.9039 21.1096C18.1507 21.1096 21.7719 25.041 21.7674 32.9038V35.2122H4.71739C5.16667 38.4491 7.23333 40.0652 10.9174 40.0607H21.7674V44.6844ZM17.05 30.5953C16.6007 27.3358 14.5475 25.7061 10.8904 25.7061C7.22435 25.7061 5.16667 27.3358 4.71739 30.5953H17.05Z" fill="white"/>
<path d="M44.8235 35.4097C44.918 37.5185 44.3237 39.6002 43.1319 41.334C41.5011 43.5676 38.792 44.6843 35.0046 44.6843C31.2172 44.6843 28.5058 43.5676 26.8704 41.334C25.6592 39.6072 25.0456 37.5248 25.125 35.4097H29.6537C29.6537 37.2256 30.1254 38.4944 31.0689 39.2162C31.8506 39.8019 33.1648 40.0947 34.9978 40.0947C36.8309 40.0947 38.1248 39.8019 38.8863 39.2162C39.8163 38.5353 40.2813 37.2687 40.2813 35.4165C40.3123 34.8326 40.2014 34.2499 39.9582 33.7193C39.7151 33.1887 39.347 32.7264 38.8863 32.3726C37.4403 31.5202 35.8813 30.8804 34.2565 30.4727C31.462 29.6238 29.4785 28.7567 28.3059 27.8715C27.2903 27.1379 26.471 26.1608 25.9217 25.0281C25.3723 23.8953 25.1101 22.6424 25.1587 21.3819C25.0708 19.2552 25.6848 17.1593 26.9041 15.4235C28.535 13.1855 31.2441 12.0664 35.0315 12.0664C38.8189 12.0664 41.5191 13.1855 43.1319 15.4235C44.3209 17.1718 44.9168 19.2625 44.8302 21.3819H40.2813C40.2813 19.5297 39.8163 18.2495 38.8863 17.5413C38.0956 16.9466 36.7994 16.6515 34.9978 16.6561C33.1648 16.6561 31.8506 16.9489 31.0689 17.5413C30.1254 18.2495 29.6537 19.5297 29.6537 21.3819C29.6293 21.9404 29.745 22.4961 29.99 22.9973C30.2351 23.4986 30.6016 23.929 31.0554 24.2488C32.4599 25.0675 33.9738 25.6776 35.5504 26.0601C38.4078 26.9136 40.4475 27.8102 41.6696 28.7499C42.6998 29.5094 43.5272 30.5155 44.0777 31.6779C44.6282 32.8403 44.8844 34.1225 44.8235 35.4097Z" fill="white"/>
<path d="M58.6307 21.1096C51.6939 21.1096 48.2232 25.0523 48.2188 32.9378V53.9999H52.5992V44.7116H58.6307C65.5855 44.7116 69.0651 40.787 69.0696 32.9378C69.0741 25.0887 65.5945 21.1459 58.6307 21.1096ZM63.5503 38.1336C62.5933 39.441 60.9535 40.0947 58.6307 40.0947H52.5992V32.9378C52.5992 30.5409 52.9788 28.8067 53.7381 27.7353C54.6636 26.4097 56.2945 25.7446 58.6307 25.7401C60.9669 25.7356 62.609 26.4006 63.557 27.7353C64.3163 28.8021 64.6959 30.5363 64.6959 32.9378C64.6959 35.3076 64.3051 37.044 63.5503 38.1336Z" fill="white"/>
<path d="M121.978 32.8019C124.108 30.8453 125.175 27.7197 125.179 23.4251V21.1098H120.799V23.4251C120.799 25.8289 120.421 27.5585 119.66 28.6276C118.736 29.9895 117.106 30.6296 114.781 30.6296H111.451V11.876H107.071V44.7118H111.451V35.2465H115.03C117.362 35.2465 118.986 35.9275 119.916 37.2009C120.671 38.2677 121.048 40.0019 121.048 42.4034V44.7118H125.428V42.4034C125.433 37.9908 124.283 34.7903 121.978 32.8019Z" fill="white"/>
<path d="M93.4392 29.6965V44.6776H97.8196V29.6965C97.7837 29.1839 97.8682 28.67 98.0661 28.1967C98.264 27.7233 98.5698 27.3039 98.9586 26.9726C99.9964 26.1691 101.877 25.7742 104.599 25.7742V21.1096C97.1592 21.1096 93.4392 23.9719 93.4392 29.6965Z" fill="white"/>
<path d="M138.154 40.0131C138.154 41.8744 137.642 43.2114 136.617 44.024C135.836 44.5976 134.887 44.8901 133.922 44.8548H128.645V27.8308H133.922C134.887 27.7954 135.836 28.0879 136.617 28.6616C137.668 29.4651 138.154 30.8134 138.154 32.686C138.253 34.0108 137.843 35.3232 137.008 36.3496C137.842 37.3763 138.253 38.6885 138.154 40.0131ZM135.93 32.686C135.981 32.0574 135.855 31.4269 135.566 30.8679C135.365 30.6328 135.11 30.451 134.823 30.3382C134.537 30.2255 134.227 30.1852 133.922 30.221H130.896V35.1511H133.922C134.227 35.188 134.537 35.1483 134.824 35.0355C135.111 34.9227 135.365 34.7402 135.566 34.5042C135.855 33.9452 135.981 33.3147 135.93 32.686V32.686ZM135.93 40.0131C135.981 39.3845 135.855 38.754 135.566 38.195C135.368 37.9537 135.115 37.7654 134.828 37.6467C134.541 37.5279 134.23 37.4823 133.922 37.514H130.896V42.4237H133.922C134.225 42.459 134.533 42.4206 134.819 42.3117C135.105 42.2027 135.361 42.0263 135.566 41.7973C135.856 41.2385 135.982 40.6078 135.93 39.9791V40.0131ZM142.157 30.221H139.913V27.824H142.157V30.221V30.221ZM139.913 32.6179H142.157V44.8752H139.913V32.6179V32.6179ZM154.698 44.8752H143.997V43.6563C143.997 39.5705 145.778 37.5276 149.341 37.5276C151.138 37.5276 152.146 36.6833 152.367 34.9945H143.997V32.6179H154.698V33.8164C154.698 37.9022 152.901 39.945 149.307 39.945C147.514 39.945 146.51 40.7826 146.274 42.4578H154.665L154.698 44.8752Z" fill="white"/>
<path d="M56.0836 52.4338L55.2615 47.8577H55.9893L56.5217 51.0106L57.1956 47.8577H58.038L58.631 51.0719L59.1769 47.8646H59.8913L59.0152 52.4338H58.2604L57.5865 49.029L56.9126 52.4338H56.0836ZM60.9021 47.8373V49.5261C60.9788 49.382 61.0911 49.2605 61.2281 49.1734C61.3651 49.0863 61.5222 49.0365 61.6839 49.029C61.8326 49.0255 61.9794 49.0632 62.1084 49.138C62.2268 49.2085 62.3245 49.3095 62.3915 49.4308C62.4561 49.5517 62.4994 49.683 62.5195 49.8189C62.5386 50.0455 62.5386 50.2733 62.5195 50.4999V52.4338H61.8456V50.6905C61.8565 50.4627 61.843 50.2344 61.8052 50.0096C61.785 49.9221 61.7378 49.8434 61.6704 49.7849C61.6097 49.7393 61.537 49.7132 61.4615 49.71C61.3506 49.7074 61.2426 49.7462 61.1582 49.8189C61.0608 49.9016 60.9922 50.0138 60.9628 50.139C60.9155 50.3465 60.8951 50.5594 60.9021 50.7722V52.4338H60.2282V47.8577L60.9021 47.8373ZM64.6963 51.3919L65.3702 51.5417C65.3065 51.8219 65.1637 52.0774 64.9591 52.2772C64.7713 52.4396 64.5323 52.5289 64.2852 52.5291C64.0833 52.5386 63.883 52.4898 63.7076 52.3885C63.5322 52.2872 63.3889 52.1376 63.2945 51.9571C63.1149 51.604 63.0289 51.2098 63.0452 50.8131C63.0184 50.3575 63.1339 49.905 63.3754 49.5193C63.4632 49.3722 63.5866 49.25 63.7339 49.1643C63.8813 49.0785 64.0478 49.032 64.2178 49.029C64.3973 49.0254 64.5747 49.0686 64.7329 49.1545C64.8911 49.2404 65.0247 49.366 65.1208 49.5193C65.3793 49.9925 65.4875 50.5345 65.4308 51.0719H63.7393C63.7332 51.2855 63.7895 51.4963 63.901 51.6779C63.9438 51.7436 64.0017 51.7978 64.0698 51.8358C64.1379 51.8737 64.2141 51.8943 64.2919 51.8958C64.3418 51.8973 64.3915 51.8884 64.4379 51.8697C64.4843 51.8509 64.5263 51.8228 64.5615 51.7869C64.6454 51.6801 64.701 51.5536 64.7232 51.4192L64.6963 51.3919ZM64.7367 50.4999C64.7431 50.2957 64.6891 50.0941 64.5817 49.921C64.5435 49.8619 64.4916 49.813 64.4306 49.7786C64.3695 49.7442 64.3011 49.7253 64.2313 49.7236C64.1576 49.7232 64.0851 49.7425 64.0212 49.7796C63.9573 49.8167 63.9042 49.8702 63.8673 49.9347C63.7584 50.1015 63.7085 50.3007 63.7258 50.4999H64.7367ZM66.6304 52.4338H65.9565V49.1243H66.5832V49.5942C66.6509 49.4313 66.7493 49.2833 66.873 49.1584C66.955 49.0861 67.0607 49.0473 67.1695 49.0494C67.3313 49.0543 67.4872 49.1116 67.6143 49.2129L67.3919 49.9823C67.3036 49.8984 67.1893 49.8479 67.0684 49.8393C67.0241 49.8379 66.98 49.8463 66.9393 49.864C66.8985 49.8816 66.8621 49.9081 66.8326 49.9415C66.7457 50.0456 66.6917 50.1737 66.6776 50.3092C66.6245 50.6789 66.6042 51.0526 66.6169 51.426V52.4338H66.6304ZM69.4136 51.3919L70.0876 51.5417C70.0239 51.8219 69.8811 52.0774 69.6765 52.2772C69.4881 52.4385 69.2495 52.5277 69.0026 52.5291C68.8007 52.5386 68.6004 52.4898 68.425 52.3885C68.2496 52.2872 68.1063 52.1376 68.0119 51.9571C67.8322 51.604 67.7463 51.2098 67.7626 50.8131C67.7358 50.3575 67.8513 49.905 68.0928 49.5193C68.1826 49.3755 68.3069 49.2571 68.4542 49.1749C68.6015 49.0928 68.7669 49.0496 68.9352 49.0494C69.1139 49.045 69.2907 49.0879 69.4479 49.1739C69.6052 49.2599 69.7374 49.3861 69.8315 49.5397C70.0673 50.0128 70.1565 50.5468 70.0876 51.0719H68.3893C68.3818 51.2867 68.4407 51.4985 68.5578 51.6779C68.6001 51.744 68.6579 51.7985 68.7261 51.8365C68.7943 51.8746 68.8708 51.8949 68.9486 51.8958C68.9976 51.8976 69.0464 51.8889 69.0917 51.8701C69.1371 51.8513 69.1779 51.8229 69.2115 51.7869C69.2978 51.6809 69.3558 51.5543 69.3799 51.4192L69.4136 51.3919ZM69.4473 50.4999C69.4588 50.296 69.4069 50.0937 69.2991 49.921C69.2609 49.8619 69.209 49.813 69.148 49.7786C69.0869 49.7442 69.0185 49.7253 68.9486 49.7236C68.8742 49.724 68.8011 49.7437 68.7363 49.7806C68.6714 49.8175 68.6169 49.8706 68.578 49.9347C68.4752 50.1042 68.4258 50.3013 68.4365 50.4999H69.4473ZM75.0206 52.4338H74.2456L73.9356 51.3851H72.5271L72.2373 52.4338H71.4758L72.8236 47.8373H73.5784L74.9936 52.4338H75.0206ZM73.7065 50.6156L73.2213 48.9064L72.7428 50.6156H73.7065ZM75.0947 49.1039H75.4789V48.8519C75.4691 48.6409 75.4919 48.4295 75.5462 48.2255C75.5945 48.0896 75.6841 47.9728 75.8023 47.8918C75.9398 47.7998 76.1027 47.7545 76.2673 47.7624C76.4611 47.7623 76.6532 47.7993 76.8334 47.8714L76.7391 48.4842C76.6388 48.4522 76.5342 48.4362 76.4291 48.4366C76.3897 48.4324 76.3499 48.4384 76.3134 48.4538C76.2769 48.4693 76.2448 48.4938 76.2202 48.5251C76.169 48.6308 76.1457 48.7481 76.1528 48.8656V49.1039H76.6649V49.7849H76.1528V52.4338H75.4789V49.8189H75.1015V49.138L75.0947 49.1039ZM76.7391 49.1039V49.7849H77.1165V52.4338H77.7904V49.8189H78.2958V49.138H77.7904V48.8996C77.7787 48.7819 77.8022 48.6633 77.8578 48.5591C77.882 48.5273 77.914 48.5025 77.9506 48.487C77.9873 48.4714 78.0273 48.4658 78.0667 48.4706C78.1718 48.4702 78.2764 48.4863 78.3767 48.5183L78.4643 47.9054C78.2845 47.832 78.0921 47.795 77.8982 47.7965C77.7337 47.7904 77.5714 47.8355 77.4332 47.9258C77.3175 48.0079 77.2303 48.1246 77.1839 48.2595C77.1295 48.4636 77.1067 48.6749 77.1165 48.886V49.138L76.7391 49.1039ZM78.5182 50.7178C78.5201 50.428 78.5773 50.1413 78.6867 49.8734C78.7795 49.6222 78.9436 49.4043 79.1584 49.2469C79.3553 49.1055 79.5908 49.0293 79.8323 49.029C80.0181 49.0273 80.2015 49.071 80.367 49.1563C80.5324 49.2417 80.675 49.3662 80.7826 49.5193C81.0404 49.8786 81.171 50.3152 81.1532 50.7586C81.1669 51.2068 81.0343 51.6471 80.7758 52.0116C80.6701 52.1654 80.529 52.2909 80.3647 52.3775C80.2003 52.4641 80.0177 52.5091 79.8323 52.5087C79.5918 52.5082 79.357 52.4346 79.1584 52.2976C78.937 52.1528 78.7671 51.9406 78.6732 51.6915C78.5546 51.3812 78.4974 51.0504 78.5047 50.7178H78.5182ZM79.1921 50.7654C79.1774 51.0322 79.2407 51.2974 79.3741 51.5281C79.4189 51.6074 79.4836 51.6732 79.5617 51.7191C79.6398 51.7649 79.7285 51.789 79.8189 51.789C79.9092 51.789 79.9979 51.7649 80.076 51.7191C80.1541 51.6732 80.2189 51.6074 80.2636 51.5281C80.3983 51.2955 80.4616 51.0277 80.4456 50.7586C80.4609 50.4961 80.3975 50.2351 80.2636 50.0096C80.2203 49.9285 80.1561 49.8608 80.0778 49.8136C79.9995 49.7664 79.91 49.7414 79.8189 49.7414C79.7277 49.7414 79.6382 49.7664 79.5599 49.8136C79.4816 49.8608 79.4174 49.9285 79.3741 50.0096C79.2397 50.2374 79.1763 50.5007 79.1921 50.7654V50.7654ZM82.3393 52.4338H81.6654V49.1243H82.2921V49.5942C82.3618 49.4324 82.46 49.2847 82.5819 49.1584C82.6646 49.076 82.7758 49.0296 82.8919 49.029C83.0541 49.0314 83.2108 49.0889 83.3367 49.1924L83.1278 49.9619C83.0416 49.8789 82.9297 49.8284 82.811 49.8189C82.7658 49.8182 82.721 49.827 82.6792 49.8445C82.6375 49.8621 82.5998 49.8881 82.5684 49.921C82.4859 50.0278 82.4324 50.1546 82.4134 50.2888C82.3639 50.6588 82.3458 51.0324 82.3595 51.4055V52.4338H82.3393ZM85.9515 52.4338H85.3247V51.9435C85.2398 52.1145 85.112 52.2601 84.9541 52.3657C84.828 52.4566 84.6776 52.5064 84.5228 52.5087C84.3685 52.502 84.2185 52.456 84.0866 52.3751C83.9546 52.2941 83.845 52.1808 83.768 52.0456C83.5393 51.6553 83.4313 51.2047 83.458 50.7518C83.4295 50.304 83.5352 49.8579 83.7612 49.4716C83.843 49.3378 83.957 49.2271 84.0925 49.1497C84.228 49.0723 84.3806 49.0308 84.5362 49.029C84.6884 49.0367 84.8362 49.0832 84.9658 49.1642C85.0955 49.2451 85.2027 49.3579 85.2776 49.492V47.8577H85.9515V52.4338ZM84.1454 50.6973C84.131 50.9591 84.17 51.221 84.2599 51.4668C84.2926 51.5648 84.3539 51.6504 84.4357 51.7124C84.5175 51.7744 84.616 51.8099 84.7182 51.8141C84.8018 51.8095 84.8828 51.7825 84.9526 51.7358C85.0225 51.6891 85.0788 51.6245 85.1158 51.5485C85.2388 51.312 85.2948 51.0457 85.2776 50.7791C85.2968 50.4955 85.2434 50.2117 85.1226 49.9551C85.0827 49.8797 85.0235 49.8166 84.9512 49.7722C84.8788 49.7279 84.796 49.704 84.7115 49.7031C84.629 49.7059 84.5486 49.7299 84.4778 49.7727C84.4071 49.8156 84.3483 49.8761 84.3071 49.9483C84.1833 50.1772 84.1272 50.4372 84.1454 50.6973V50.6973ZM87.1241 50.1185L86.5108 49.9755C86.5598 49.7176 86.6843 49.4804 86.868 49.2946C87.0728 49.1143 87.3378 49.0194 87.6093 49.029C87.8418 49.0148 88.074 49.0617 88.2832 49.1652C88.4221 49.2477 88.5327 49.3713 88.5999 49.5193C88.674 49.7755 88.7036 50.0428 88.6876 50.3092V51.3374C88.6827 51.5649 88.6939 51.7925 88.7212 52.0184C88.7461 52.1721 88.7868 52.3227 88.8426 52.4678H88.1686C88.1686 52.4065 88.1282 52.318 88.1012 52.2023V52.1001C88.0019 52.2361 87.8757 52.3497 87.7306 52.4338C87.6022 52.5039 87.4587 52.5413 87.3128 52.5427C87.1942 52.5473 87.0761 52.5246 86.9675 52.4762C86.8589 52.4278 86.7627 52.3551 86.686 52.2635C86.5389 52.0679 86.4607 51.8283 86.4636 51.5826C86.4613 51.4092 86.4958 51.2374 86.5647 51.0787C86.6274 50.9415 86.7281 50.8257 86.8545 50.745C87.0226 50.6474 87.2044 50.5762 87.3936 50.5339C87.6261 50.4921 87.8525 50.4212 88.0675 50.3228V50.2343C88.0823 50.1063 88.0486 49.9773 87.9732 49.8734C87.9238 49.83 87.8657 49.7978 87.8029 49.779C87.7402 49.7603 87.6741 49.7553 87.6093 49.7644C87.5073 49.7567 87.4061 49.7883 87.3262 49.853C87.2439 49.945 87.1879 50.058 87.1645 50.1798L87.1241 50.1185ZM88.0271 50.8335C87.8925 50.8861 87.7553 50.9315 87.616 50.9697C87.4862 50.9953 87.3626 51.0462 87.2521 51.1195C87.2086 51.1588 87.174 51.2072 87.1508 51.2612C87.1275 51.3153 87.1161 51.3738 87.1173 51.4328C87.114 51.5491 87.1523 51.6627 87.2252 51.7528C87.2562 51.7955 87.2968 51.8301 87.3437 51.8538C87.3905 51.8775 87.4423 51.8896 87.4947 51.889C87.6267 51.8826 87.7516 51.8267 87.8452 51.7324C87.9256 51.6523 87.9817 51.5508 88.0069 51.4396C88.0174 51.2968 88.0174 51.1534 88.0069 51.0106V50.8335H88.0271ZM89.3345 52.4338V47.8577H90.0084V49.5125C90.0833 49.3784 90.1905 49.2656 90.3201 49.1846C90.4497 49.1036 90.5975 49.0571 90.7497 49.0494C90.9054 49.0512 91.058 49.0927 91.1935 49.1701C91.329 49.2475 91.4429 49.3582 91.5247 49.492C91.75 49.8712 91.8557 50.3105 91.828 50.7518C91.8571 51.2114 91.7491 51.6692 91.518 52.0661C91.4414 52.2017 91.332 52.3153 91.1999 52.3963C91.0679 52.4773 90.9176 52.523 90.7632 52.5291C90.6084 52.5269 90.4579 52.477 90.3319 52.3861C90.1752 52.2791 90.0477 52.1339 89.9612 51.9639V52.4338H89.3345ZM90.0084 50.6973C89.9956 50.958 90.0393 51.2183 90.1365 51.46C90.1708 51.5588 90.2333 51.6451 90.316 51.7081C90.3987 51.7711 90.4981 51.808 90.6015 51.8141C90.6814 51.8085 90.7586 51.7825 90.8258 51.7384C90.893 51.6943 90.948 51.6337 90.9856 51.5622C91.1081 51.3207 91.1617 51.0496 91.1406 50.7791C91.1598 50.4955 91.1064 50.2117 90.9856 49.9551C90.9471 49.8793 90.8887 49.8157 90.8168 49.7713C90.7448 49.7269 90.6622 49.7034 90.5779 49.7034C90.4936 49.7034 90.4109 49.7269 90.339 49.7713C90.2671 49.8157 90.2086 49.8793 90.1702 49.9551C90.0464 50.184 89.9902 50.444 90.0084 50.7042V50.6973ZM92.3806 48.6545V47.8373H93.0545V48.6545H92.3806ZM92.3806 52.4338V49.1243H93.0545V52.4338H92.3806ZM93.7284 52.4338V47.8577H94.4023V52.4338H93.7284ZM95.0762 48.6545V47.8373H95.7502V48.6545H95.0762ZM95.0762 52.4338V49.1243H95.7502V52.4338H95.0762ZM97.6169 49.1039V49.7849H97.1519V51.1468C97.1519 51.4192 97.1519 51.5758 97.1519 51.6234C97.1612 51.665 97.1822 51.7028 97.2125 51.7324C97.2444 51.7599 97.2852 51.7745 97.3271 51.7733C97.4235 51.7637 97.5172 51.736 97.6034 51.6915L97.6573 52.3725C97.4945 52.4636 97.3111 52.5105 97.1249 52.5087C97.0098 52.5104 96.8961 52.4823 96.7947 52.427C96.705 52.3811 96.6301 52.3102 96.5791 52.2227C96.5253 52.1143 96.4932 51.9963 96.4847 51.8754C96.4738 51.669 96.4738 51.4621 96.4847 51.2557V49.8257H96.168V49.1448H96.4847V48.4638L97.1586 47.9463V49.1243L97.6169 49.1039ZM97.7652 49.1039H98.4862L99.0995 51.4668L99.6925 49.1039H100.366L99.4634 52.3044L99.3017 52.8832C99.2587 53.0378 99.2024 53.1881 99.1332 53.3326C99.0871 53.4263 99.023 53.5096 98.9445 53.5778C98.8712 53.6463 98.7837 53.6975 98.6884 53.7276C98.5933 53.7643 98.4934 53.7873 98.3919 53.7957C98.2621 53.7943 98.133 53.776 98.0078 53.7412L97.9471 53.0603C98.0417 53.0858 98.139 53.0996 98.2369 53.1011C98.3062 53.1047 98.3752 53.0895 98.4368 53.0572C98.4984 53.0249 98.5503 52.9766 98.5873 52.9173C98.669 52.7761 98.726 52.6218 98.7558 52.461L97.7854 49.1243L97.7652 49.1039ZM102.233 52.4338V47.8577H103.298L103.938 50.9902L104.572 47.8577H105.643V52.4338H104.969V48.8383L104.295 52.4542H103.621L102.948 48.8383V52.4338H102.233ZM107.827 51.3715L108.501 51.5213C108.437 51.8015 108.294 52.057 108.09 52.2567C107.902 52.4191 107.663 52.5085 107.416 52.5087C107.214 52.5181 107.013 52.4694 106.838 52.3681C106.663 52.2668 106.519 52.1172 106.425 51.9367C106.245 51.5836 106.159 51.1894 106.176 50.7927C106.149 50.3371 106.264 49.8845 106.506 49.4989C106.596 49.3555 106.72 49.2374 106.868 49.1553C107.015 49.0732 107.18 49.0298 107.348 49.029C107.528 49.0254 107.705 49.0686 107.863 49.1545C108.022 49.2404 108.155 49.366 108.251 49.5193C108.5 49.9786 108.608 50.5026 108.561 51.0242H106.87C106.86 51.2383 106.917 51.45 107.031 51.6303C107.074 51.6964 107.132 51.7509 107.2 51.7889C107.268 51.8269 107.344 51.8473 107.422 51.8482C107.472 51.8497 107.522 51.8408 107.568 51.822C107.615 51.8033 107.657 51.7751 107.692 51.7392C107.773 51.6308 107.828 51.505 107.854 51.3715H107.827ZM107.867 50.4794C107.873 50.2752 107.82 50.0737 107.712 49.9006C107.674 49.8415 107.622 49.7926 107.561 49.7582C107.5 49.7238 107.432 49.7049 107.362 49.7031C107.288 49.7028 107.216 49.7221 107.152 49.7592C107.088 49.7963 107.035 49.8498 106.998 49.9142C106.889 50.0811 106.839 50.2803 106.856 50.4794H107.867ZM110.563 51.3715L111.237 51.5213C111.173 51.8015 111.03 52.057 110.826 52.2567C110.637 52.4181 110.399 52.5073 110.152 52.5087C109.954 52.5175 109.758 52.4705 109.586 52.3731C109.413 52.2757 109.271 52.1317 109.175 51.9571C108.995 51.604 108.909 51.2098 108.925 50.8131C108.898 50.3575 109.014 49.905 109.255 49.5193C109.346 49.376 109.47 49.2578 109.617 49.1758C109.764 49.0937 109.93 49.0502 110.098 49.0494C110.277 49.045 110.453 49.0879 110.611 49.1739C110.768 49.2599 110.9 49.3861 110.994 49.5397C111.249 49.9971 111.359 50.5221 111.311 51.0446H109.619C109.607 51.259 109.663 51.4718 109.781 51.6507C109.823 51.7168 109.881 51.7713 109.949 51.8093C110.018 51.8473 110.094 51.8677 110.172 51.8686C110.222 51.8701 110.272 51.8612 110.318 51.8425C110.364 51.8237 110.406 51.7955 110.441 51.7596C110.523 51.6512 110.578 51.5254 110.603 51.3919L110.563 51.3715ZM110.596 50.4794C110.608 50.2756 110.556 50.0733 110.448 49.9006C110.41 49.8415 110.358 49.7926 110.297 49.7582C110.236 49.7238 110.168 49.7049 110.098 49.7031C110.024 49.7028 109.952 49.7221 109.888 49.7592C109.824 49.7963 109.771 49.8498 109.734 49.9142C109.625 50.0811 109.575 50.2803 109.592 50.4794H110.596ZM112.996 49.1175V49.7985H112.544V51.1604C112.544 51.4328 112.544 51.5894 112.544 51.6371C112.556 51.6775 112.577 51.7147 112.605 51.746C112.637 51.7725 112.678 51.7869 112.719 51.7869C112.816 51.7781 112.91 51.7504 112.996 51.7052L113.049 52.3861C112.887 52.4781 112.703 52.5251 112.517 52.5223C112.402 52.524 112.288 52.4959 112.187 52.4406C112.097 52.3947 112.022 52.3238 111.971 52.2363C111.92 52.1268 111.889 52.0094 111.877 51.889C111.866 51.6826 111.866 51.4758 111.877 51.2693V49.8257H111.567V49.1448H111.87V48.4638L112.544 47.9463V49.1243L112.996 49.1175ZM113.225 51.4941L113.899 51.3579C113.913 51.5053 113.974 51.6439 114.074 51.7528C114.124 51.7986 114.182 51.8336 114.246 51.8559C114.31 51.8781 114.377 51.8871 114.445 51.8822C114.588 51.8931 114.729 51.8494 114.842 51.7596C114.872 51.7283 114.896 51.6909 114.911 51.6499C114.926 51.6088 114.932 51.565 114.93 51.5213C114.934 51.4629 114.917 51.4049 114.883 51.3579C114.818 51.2987 114.739 51.2586 114.653 51.2421C114.285 51.163 113.933 51.0177 113.616 50.8131C113.513 50.719 113.433 50.6029 113.38 50.4733C113.328 50.3437 113.304 50.2038 113.312 50.064C113.303 49.9216 113.325 49.7788 113.377 49.646C113.429 49.5132 113.51 49.3937 113.613 49.2961C113.716 49.1984 113.839 49.1251 113.974 49.0812C114.108 49.0374 114.25 49.0242 114.391 49.0426C114.522 49.0235 114.656 49.0312 114.785 49.0652C114.914 49.0993 115.034 49.159 115.14 49.2408C115.245 49.3227 115.334 49.425 115.399 49.5419C115.465 49.6587 115.507 49.7876 115.523 49.921L114.883 50.0777C114.863 49.9639 114.809 49.8591 114.728 49.778C114.636 49.7041 114.521 49.6676 114.404 49.6759C114.269 49.6606 114.133 49.6944 114.02 49.7712C113.995 49.7934 113.976 49.8207 113.963 49.8513C113.95 49.882 113.944 49.9151 113.946 49.9483C113.945 49.9788 113.95 50.0093 113.962 50.0375C113.973 50.0657 113.991 50.091 114.013 50.1117C114.21 50.223 114.421 50.3055 114.64 50.3569C114.921 50.42 115.181 50.5561 115.395 50.7518C115.473 50.8454 115.533 50.9537 115.57 51.0706C115.607 51.1874 115.621 51.3105 115.61 51.4328C115.615 51.7227 115.509 52.0033 115.314 52.2159C115.202 52.3327 115.066 52.4232 114.916 52.4809C114.766 52.5386 114.605 52.562 114.445 52.5495C114.143 52.5644 113.848 52.4648 113.616 52.2704C113.407 52.0699 113.268 51.8075 113.218 51.5213L113.225 51.4941ZM117.585 52.4474V47.8577H118.724C119.009 47.842 119.294 47.8649 119.573 47.9258C119.791 48.0072 119.971 48.1673 120.078 48.3753C120.229 48.6495 120.302 48.9607 120.287 49.2741C120.291 49.5069 120.249 49.7381 120.166 49.9551C120.102 50.1276 120.001 50.2834 119.869 50.4113C119.765 50.5107 119.637 50.5831 119.499 50.6224C119.256 50.6764 119.006 50.6993 118.758 50.6905H118.293V52.4338L117.585 52.4474ZM118.259 48.6272V49.9279H118.65C118.841 49.9422 119.033 49.9191 119.216 49.8598C119.312 49.8107 119.39 49.7319 119.438 49.635C119.494 49.5233 119.522 49.3993 119.519 49.2741C119.525 49.1291 119.485 48.9859 119.404 48.8656C119.34 48.763 119.238 48.6898 119.121 48.6613C118.949 48.6444 118.775 48.6444 118.603 48.6613L118.259 48.6272ZM121.521 52.4338H120.847V49.1243H121.473V49.5942C121.541 49.4313 121.64 49.2833 121.763 49.1584C121.843 49.0871 121.946 49.0483 122.053 49.0494C122.215 49.0518 122.372 49.1094 122.498 49.2129L122.289 49.9823C122.203 49.8984 122.091 49.8478 121.972 49.8393C121.927 49.8387 121.882 49.8474 121.84 49.865C121.799 49.8825 121.761 49.9086 121.729 49.9415C121.65 50.0499 121.597 50.1759 121.574 50.3092C121.529 50.6795 121.511 51.0529 121.521 51.426V52.4338ZM122.653 50.7382C122.655 50.4484 122.712 50.1617 122.821 49.8938C122.917 49.6441 123.08 49.4269 123.293 49.2673C123.49 49.1259 123.725 49.0498 123.967 49.0494C124.153 49.0477 124.336 49.0914 124.502 49.1768C124.667 49.2621 124.81 49.3866 124.917 49.5397C125.175 49.899 125.306 50.3356 125.288 50.7791C125.303 51.2265 125.173 51.6667 124.917 52.032C124.81 52.1846 124.669 52.3092 124.505 52.3957C124.341 52.4821 124.159 52.5279 123.974 52.5291C123.733 52.5286 123.498 52.4551 123.3 52.318C123.083 52.1681 122.914 51.9574 122.814 51.712C122.696 51.4016 122.639 51.0708 122.646 50.7382H122.653ZM123.327 50.7859C123.312 51.0526 123.375 51.3178 123.509 51.5485C123.553 51.6278 123.618 51.6937 123.696 51.7395C123.774 51.7853 123.863 51.8095 123.953 51.8095C124.044 51.8095 124.132 51.7853 124.211 51.7395C124.289 51.6937 124.353 51.6278 124.398 51.5485C124.533 51.3159 124.596 51.0481 124.58 50.7791C124.595 50.5166 124.532 50.2555 124.398 50.03C124.355 49.9489 124.291 49.8812 124.212 49.834C124.134 49.7868 124.045 49.7619 123.953 49.7619C123.862 49.7619 123.773 49.7868 123.694 49.834C123.616 49.8812 123.552 49.9489 123.509 50.03C123.374 50.2578 123.311 50.5212 123.327 50.7859V50.7859ZM125.51 49.1243H125.881V48.8724C125.873 48.6609 125.898 48.4496 125.955 48.2459C125.997 48.1086 126.085 47.9905 126.204 47.9122C126.342 47.8202 126.505 47.7749 126.669 47.7828C126.863 47.7814 127.056 47.8184 127.235 47.8918L127.148 48.5047C127.047 48.4732 126.943 48.4571 126.838 48.457C126.797 48.4529 126.757 48.4588 126.719 48.4743C126.682 48.4897 126.648 48.5141 126.622 48.5455C126.573 48.6518 126.552 48.7691 126.561 48.886V49.1243H127.067V49.8053H126.561V52.4338H125.888V49.8189H125.517V49.138L125.51 49.1243ZM128.927 51.3919L129.601 51.5417C129.537 51.8219 129.394 52.0774 129.19 52.2772C129.002 52.4396 128.763 52.5289 128.516 52.5291C128.314 52.5386 128.114 52.4898 127.938 52.3885C127.763 52.2872 127.62 52.1376 127.525 51.9571C127.345 51.604 127.26 51.2098 127.276 50.8131C127.249 50.3575 127.365 49.905 127.606 49.5193C127.696 49.376 127.821 49.2578 127.968 49.1758C128.115 49.0937 128.28 49.0502 128.448 49.0494C128.628 49.0458 128.805 49.089 128.964 49.1749C129.122 49.2608 129.255 49.3864 129.351 49.5397C129.6 49.9991 129.708 50.523 129.661 51.0446H127.97C127.964 51.2583 128.02 51.4691 128.132 51.6507C128.174 51.7164 128.232 51.7705 128.3 51.8085C128.369 51.8465 128.445 51.8671 128.523 51.8686C128.572 51.8701 128.622 51.8612 128.669 51.8425C128.715 51.8237 128.757 51.7955 128.792 51.7596C128.873 51.6512 128.929 51.5254 128.954 51.3919H128.927ZM128.967 50.4999C128.974 50.2957 128.92 50.0941 128.812 49.921C128.774 49.8619 128.722 49.813 128.661 49.7786C128.6 49.7442 128.532 49.7253 128.462 49.7236C128.388 49.7232 128.316 49.7425 128.252 49.7796C128.188 49.8167 128.135 49.8702 128.098 49.9347C127.989 50.1015 127.939 50.3007 127.956 50.4999H128.967ZM129.951 51.5009L130.625 51.3647C130.639 51.5121 130.701 51.6507 130.8 51.7596C130.85 51.8054 130.909 51.8404 130.973 51.8627C131.036 51.8849 131.104 51.8939 131.171 51.889C131.312 51.9002 131.452 51.8563 131.562 51.7664C131.592 51.7351 131.616 51.6977 131.631 51.6567C131.646 51.6156 131.652 51.5718 131.649 51.5281C131.654 51.4697 131.637 51.4117 131.602 51.3647C131.54 51.3066 131.463 51.2666 131.38 51.2489C131.011 51.1713 130.659 51.0259 130.342 50.8199C130.24 50.7258 130.159 50.6097 130.107 50.4801C130.054 50.3505 130.031 50.2107 130.039 50.0709C130.032 49.8031 130.126 49.5426 130.302 49.3422C130.408 49.2376 130.535 49.1572 130.674 49.1067C130.814 49.0561 130.963 49.0366 131.11 49.0494C131.389 49.0272 131.667 49.1069 131.892 49.2741C132.083 49.4539 132.206 49.6943 132.243 49.9551L131.609 50.1117C131.59 49.9979 131.535 49.8931 131.454 49.8121C131.36 49.7394 131.242 49.7032 131.124 49.71C130.989 49.6969 130.853 49.7305 130.74 49.8053C130.716 49.8282 130.697 49.8557 130.685 49.8862C130.672 49.9166 130.665 49.9493 130.666 49.9823C130.664 50.0129 130.67 50.0433 130.681 50.0715C130.693 50.0998 130.711 50.1251 130.733 50.1458C130.931 50.2579 131.145 50.3405 131.366 50.3909C131.647 50.4558 131.907 50.5917 132.121 50.7859C132.277 50.976 132.352 51.2208 132.33 51.4668C132.338 51.7559 132.234 52.0367 132.04 52.2499C131.929 52.3668 131.793 52.4573 131.643 52.515C131.492 52.5727 131.331 52.5961 131.171 52.5836C130.87 52.5998 130.574 52.5001 130.342 52.3044C130.132 52.1058 129.992 51.8425 129.944 51.5553L129.951 51.5009ZM132.694 51.5009L133.368 51.3647C133.384 51.5129 133.448 51.6517 133.55 51.7596C133.6 51.8054 133.658 51.8404 133.722 51.8627C133.786 51.8849 133.853 51.8939 133.921 51.889C134.062 51.9002 134.201 51.8563 134.311 51.7664C134.342 51.7351 134.365 51.6977 134.38 51.6567C134.395 51.6156 134.402 51.5718 134.399 51.5281C134.403 51.4697 134.386 51.4117 134.352 51.3647C134.289 51.3066 134.213 51.2666 134.129 51.2489C133.76 51.1713 133.409 51.0259 133.092 50.8199C132.989 50.7258 132.909 50.6097 132.856 50.4801C132.804 50.3505 132.781 50.2107 132.788 50.0709C132.781 49.8031 132.875 49.5426 133.051 49.3422C133.157 49.2376 133.284 49.1572 133.424 49.1067C133.564 49.0561 133.712 49.0366 133.86 49.0494C134.139 49.0272 134.416 49.1069 134.642 49.2741C134.832 49.4539 134.956 49.6943 134.992 49.9551L134.359 50.1117C134.339 49.9979 134.285 49.8931 134.204 49.8121C134.109 49.7394 133.992 49.7032 133.873 49.71C133.738 49.6969 133.603 49.7305 133.489 49.8053C133.466 49.8282 133.447 49.8557 133.434 49.8862C133.422 49.9166 133.415 49.9493 133.415 49.9823C133.414 50.0129 133.419 50.0433 133.431 50.0715C133.443 50.0998 133.46 50.1251 133.483 50.1458C133.679 50.2573 133.89 50.3398 134.109 50.3909C134.389 50.4574 134.649 50.5931 134.864 50.7859C135.02 50.976 135.095 51.2208 135.073 51.4668C135.077 51.6193 135.05 51.771 134.992 51.9121C134.935 52.0531 134.848 52.1804 134.739 52.2857C134.63 52.391 134.5 52.4719 134.358 52.5232C134.216 52.5745 134.064 52.5951 133.914 52.5836C133.613 52.5998 133.316 52.5001 133.085 52.3044C132.874 52.1058 132.735 51.8425 132.687 51.5553L132.694 51.5009ZM135.673 48.6749V47.8577H136.347V48.6749H135.673ZM135.673 52.4542V49.1243H136.347V52.4338L135.673 52.4542ZM136.886 50.7382C136.884 50.4481 136.942 50.1607 137.054 49.8938C137.145 49.6414 137.309 49.4229 137.526 49.2673C137.779 49.0877 138.092 49.0156 138.397 49.0665C138.702 49.1174 138.975 49.2874 139.157 49.5397C139.401 49.9084 139.532 50.3422 139.532 50.7859C139.532 51.2296 139.401 51.6633 139.157 52.032C138.98 52.2852 138.712 52.4573 138.41 52.5109C138.108 52.5645 137.798 52.4952 137.546 52.318C137.325 52.1733 137.155 51.961 137.061 51.712C136.939 51.4025 136.882 51.071 136.893 50.7382H136.886ZM137.56 50.7859C137.545 51.0526 137.608 51.3178 137.742 51.5485C137.786 51.6278 137.851 51.6937 137.929 51.7395C138.007 51.7853 138.096 51.8095 138.186 51.8095C138.277 51.8095 138.365 51.7853 138.444 51.7395C138.522 51.6937 138.586 51.6278 138.631 51.5485C138.764 51.3152 138.825 51.0474 138.806 50.7791C138.823 50.5173 138.762 50.2564 138.631 50.03C138.588 49.9489 138.524 49.8812 138.445 49.834C138.367 49.7868 138.278 49.7619 138.186 49.7619C138.095 49.7619 138.006 49.7868 137.927 49.834C137.849 49.8812 137.785 49.9489 137.742 50.03C137.607 50.2578 137.544 50.5212 137.56 50.7859V50.7859ZM142.378 52.4338H141.704V50.7314C141.713 50.5036 141.699 50.2756 141.664 50.0504C141.64 49.9573 141.591 49.8725 141.522 49.8053C141.458 49.7467 141.373 49.7151 141.286 49.7168C141.169 49.7159 141.056 49.7596 140.97 49.8393C140.876 49.9299 140.811 50.0458 140.781 50.173C140.733 50.4242 140.715 50.6802 140.727 50.9357V52.4338H140.053V49.1243H140.68V49.6146C140.752 49.4475 140.87 49.3041 141.019 49.2006C141.167 49.0971 141.342 49.0377 141.522 49.029C141.666 49.028 141.807 49.0631 141.933 49.1311C142.047 49.1964 142.142 49.2903 142.21 49.4035C142.274 49.5181 142.319 49.6422 142.344 49.7712C142.373 49.9673 142.384 50.1656 142.378 50.3637V52.4065V52.4338ZM143.571 50.1185L142.958 49.9755C143.007 49.7176 143.131 49.4804 143.315 49.2946C143.526 49.1249 143.794 49.0422 144.063 49.063C144.295 49.0488 144.528 49.0958 144.737 49.1992C144.876 49.2818 144.986 49.4054 145.054 49.5533C145.128 49.8096 145.157 50.0768 145.141 50.3432V51.3715C145.125 51.5982 145.125 51.8258 145.141 52.0524C145.166 52.2061 145.207 52.3567 145.263 52.5019H144.589C144.589 52.4406 144.548 52.3521 144.521 52.2363V52.1342C144.422 52.2701 144.296 52.3838 144.151 52.4678C144.022 52.538 143.879 52.5754 143.733 52.5768C143.614 52.5814 143.496 52.5586 143.388 52.5102C143.279 52.4619 143.183 52.3891 143.106 52.2976C142.959 52.102 142.881 51.8623 142.884 51.6166C142.881 51.4433 142.916 51.2715 142.985 51.1127C143.047 50.9756 143.148 50.8597 143.274 50.7791C143.443 50.6814 143.624 50.6102 143.814 50.568C144.046 50.5261 144.272 50.4552 144.488 50.3569V50.2683C144.502 50.1403 144.469 50.0114 144.393 49.9074C144.344 49.8641 144.286 49.8319 144.223 49.8131C144.16 49.7943 144.094 49.7893 144.029 49.7985C143.927 49.7907 143.826 49.8224 143.746 49.887C143.664 49.979 143.608 50.0921 143.584 50.2139L143.571 50.1185ZM144.474 50.8335C144.339 50.8861 144.202 50.9315 144.063 50.9697C143.933 50.9953 143.81 51.0462 143.699 51.1195C143.656 51.1588 143.621 51.2072 143.598 51.2612C143.574 51.3153 143.563 51.3738 143.564 51.4328C143.561 51.5491 143.599 51.6627 143.672 51.7528C143.703 51.7955 143.744 51.8301 143.791 51.8538C143.837 51.8775 143.889 51.8896 143.942 51.889C144.074 51.8826 144.199 51.8267 144.292 51.7324C144.372 51.6523 144.429 51.5508 144.454 51.4396C144.464 51.2968 144.464 51.1534 144.454 51.0106V50.8335H144.474ZM145.822 52.4338V47.8577H146.496V52.4338H145.822ZM147.17 48.6545V47.8373H147.844V48.6545H147.17ZM147.17 52.4338V49.1243H147.844V52.4338H147.17ZM148.302 51.4804L148.976 51.3443C148.99 51.4917 149.052 51.6303 149.151 51.7392C149.201 51.785 149.26 51.82 149.323 51.8423C149.387 51.8645 149.454 51.8735 149.522 51.8686C149.665 51.8795 149.807 51.8357 149.919 51.746C149.95 51.7147 149.973 51.6773 149.988 51.6362C150.003 51.5952 150.01 51.5514 150.007 51.5077C150.008 51.4497 149.991 51.3928 149.96 51.3443C149.895 51.285 149.816 51.245 149.731 51.2285C149.362 51.1494 149.01 51.0041 148.693 50.7995C148.59 50.7053 148.51 50.5892 148.457 50.4596C148.405 50.33 148.382 50.1902 148.389 50.0504C148.38 49.9079 148.403 49.7652 148.454 49.6324C148.506 49.4996 148.587 49.3801 148.69 49.2825C148.793 49.1848 148.916 49.1114 149.051 49.0676C149.185 49.0238 149.328 49.0106 149.468 49.029C149.599 49.0099 149.734 49.0176 149.862 49.0516C149.991 49.0857 150.111 49.1454 150.217 49.2272C150.322 49.3091 150.411 49.4114 150.476 49.5282C150.542 49.6451 150.584 49.774 150.6 49.9074L149.926 50.064C149.907 49.9502 149.852 49.8454 149.771 49.7644C149.68 49.6905 149.564 49.654 149.448 49.6623C149.312 49.647 149.176 49.6808 149.063 49.7576C149.038 49.7794 149.018 49.8065 149.004 49.8371C148.99 49.8677 148.982 49.901 148.983 49.9347C148.983 49.9959 149.008 50.0544 149.05 50.0981C149.25 50.2075 149.463 50.2899 149.683 50.3432C149.965 50.4064 150.225 50.5425 150.438 50.7382C150.517 50.8318 150.576 50.9401 150.613 51.057C150.65 51.1738 150.664 51.2969 150.654 51.4192C150.659 51.7091 150.552 51.9897 150.357 52.2023C150.246 52.3191 150.11 52.4096 149.96 52.4673C149.809 52.525 149.648 52.5484 149.488 52.5359C149.187 52.5508 148.891 52.4512 148.659 52.2567C148.451 52.0563 148.312 51.7938 148.261 51.5077L148.302 51.4804ZM151.233 49.1039H151.86V49.5601C151.934 49.4082 152.047 49.279 152.186 49.1856C152.326 49.0923 152.488 49.0382 152.655 49.029C152.807 49.0225 152.957 49.0681 153.08 49.1584C153.213 49.2625 153.316 49.4014 153.376 49.5601C153.471 49.4038 153.595 49.2674 153.74 49.1584C153.863 49.073 154.009 49.0279 154.158 49.029C154.33 49.023 154.498 49.0758 154.637 49.1788C154.774 49.2917 154.875 49.4434 154.926 49.6146C154.981 49.8372 155.004 50.0665 154.994 50.2956V52.4338H154.32V50.5271C154.334 50.311 154.309 50.094 154.246 49.887C154.223 49.831 154.183 49.7834 154.133 49.7506C154.082 49.7177 154.023 49.7012 153.963 49.7031C153.862 49.7024 153.765 49.7415 153.693 49.8121C153.602 49.9036 153.539 50.0193 153.511 50.1458C153.47 50.3702 153.452 50.5985 153.457 50.8267V52.4338H152.783V50.6292C152.793 50.4198 152.782 50.2099 152.75 50.0028C152.733 49.9225 152.693 49.8491 152.635 49.7917C152.608 49.767 152.576 49.7483 152.541 49.7366C152.506 49.7249 152.469 49.7204 152.433 49.7236C152.328 49.7215 152.227 49.7605 152.15 49.8325C152.062 49.9184 151.999 50.0266 151.968 50.1458C151.926 50.3702 151.908 50.5984 151.914 50.8267V52.4338H151.24L151.233 49.1039Z" fill="white"/>
<path d="M78.0453 43.1999L84.3666 40.1764L78.0453 35.4642L86.1323 37.8067L85.5999 30.9971L88.5786 36.7716L89.9264 35.0897V28.1235C89.9264 23.4475 86.932 21.1096 80.9431 21.1096C77.5196 21.1096 75.0486 21.9472 73.5301 23.6223C72.4729 24.8704 71.9195 26.475 71.9801 28.1167H76.3268C76.3025 27.8326 76.342 27.5466 76.4423 27.2802C76.5427 27.0137 76.7013 26.7735 76.9064 26.5777C77.5803 25.9875 78.9281 25.6924 80.9499 25.6924C82.9716 25.6924 84.3194 25.9853 84.9933 26.5777C85.2018 26.773 85.3635 27.0137 85.4662 27.2815C85.569 27.5493 85.6101 27.8372 85.5864 28.1235C85.609 28.4013 85.5685 28.6806 85.468 28.9402C85.3676 29.1998 85.2099 29.4329 85.0068 29.6216C84.3329 30.214 82.9851 30.5068 80.9633 30.5068C77.5399 30.5068 75.0688 31.3444 73.5503 33.0196C72.4931 34.2676 71.9397 35.8722 72.0003 37.5139C71.9371 39.156 72.4908 40.7615 73.5503 42.0082C75.0509 43.6834 77.5219 44.5209 80.9633 44.5209C82.4404 44.5513 83.9139 44.3632 85.337 43.9626L85.5123 42.5666L78.0453 43.1999Z" fill="white"/>
<path d="M75.903 0H60.4502V14.9811C62.1956 20.4288 67.7352 19.5435 67.7352 19.5435C66.6559 18.9369 65.8479 17.9352 65.4776 16.7448C64.2376 12.9382 67.0074 9.13165 67.0074 9.13165C71.1654 3.24136 76.8263 4.86204 76.8263 4.86204C80.398 6.11501 78.9424 9.13165 78.9424 9.13165C77.7024 12.373 70.0467 13.8439 70.0467 13.8439C70.633 16.2 72.1628 16.7924 72.1628 16.7924C76.0985 18.9306 79.7443 14.7496 79.7443 14.7496V4.34451C79.7044 3.28183 79.299 2.26648 78.5978 1.47343C77.8966 0.680382 76.9436 0.159309 75.903 0V0Z" fill="white"/>
<path d="M65.4035 0H60.4502V9.35637C61.5196 8.37971 62.6926 7.52558 63.9478 6.80958L64.0219 6.73468V6.70063C63.5839 4.86204 65.4035 0 65.4035 0Z" fill="white"/>
<path d="M64.0203 6.73475C64.0674 7.10928 64.519 10.4051 65.6242 12.0054C65.6242 12.0054 67.3696 6.77561 71.5276 5.37964C71.5276 5.37964 68.4277 4.50121 64.0203 6.73475Z" fill="white"/>
<path d="M70.3776 7.94681C70.9572 7.32714 73.0733 5.40002 75.9104 6.18994C76.4662 6.32892 76.9484 6.67727 77.2583 7.16371C77.602 7.74933 77.7367 8.62777 76.6989 9.73092C76.553 9.88016 76.3874 10.0085 76.207 10.1123C74.8515 10.9089 73.3963 11.5182 71.8804 11.9236C71.6588 11.9693 71.4319 11.9831 71.2065 11.9645C70.2563 11.8759 68.12 11.3448 70.1417 8.27367C70.2132 8.15963 70.292 8.05044 70.3776 7.94681V7.94681Z" fill="white"/>
</g>
<defs>
<clipPath id="clip0_71_3">
<rect width="155" height="54" fill="white"/>
</clipPath>
</defs>
</svg>
