<?xml version="1.0" encoding="utf-8"?>
<svg width="175" height="54" viewBox="0 0 175 54" fill="none" xmlns="http://www.w3.org/2000/svg">
<g clip-path="url(#clip0_558_55)">
<path d="M21.7674 44.6844H10.9039C3.63464 44.6844 0 40.7575 0 32.9038C0 25.0501 3.63464 21.1187 10.9039 21.1096C18.1507 21.1096 21.7719 25.041 21.7674 32.9038V35.2123H4.71739C5.16667 38.4491 7.23333 40.0652 10.9174 40.0607H21.7674V44.6844ZM17.05 30.5954C16.6007 27.3359 14.5475 25.7061 10.8904 25.7061C7.22435 25.7061 5.16667 27.3359 4.71739 30.5954H17.05Z" fill="#002F4B"/>
<path d="M44.8225 35.4097C44.9171 37.5185 44.3227 39.6002 43.131 41.334C41.5001 43.5676 38.791 44.6843 35.0036 44.6843C31.2162 44.6843 28.5048 43.5676 26.8695 41.334C25.6582 39.6072 25.0447 37.5247 25.124 35.4097H29.6527C29.6527 37.2256 30.1245 38.4944 31.0679 39.2162C31.8497 39.8019 33.1638 40.0947 34.9968 40.0947C36.8299 40.0947 38.1238 39.8019 38.8853 39.2162C39.8153 38.5353 40.2803 37.2687 40.2803 35.4165C40.3113 34.8326 40.2004 34.2499 39.9573 33.7193C39.7141 33.1887 39.3461 32.7264 38.8853 32.3726C37.4393 31.5201 35.8803 30.8804 34.2555 30.4727C31.4611 29.6238 29.4775 28.7567 28.3049 27.8715C27.2893 27.1379 26.47 26.1608 25.9207 25.0281C25.3713 23.8953 25.1092 22.6424 25.1577 21.3819C25.0698 19.2552 25.6838 17.1593 26.9032 15.4235C28.534 13.1854 31.2432 12.0664 35.0305 12.0664C38.8179 12.0664 41.5181 13.1854 43.131 15.4235C44.32 17.1718 44.9159 19.2625 44.8292 21.3819H40.2803C40.2803 19.5297 39.8153 18.2495 38.8853 17.5413C38.0946 16.9466 36.7984 16.6515 34.9968 16.6561C33.1638 16.6561 31.8497 16.9489 31.0679 17.5413C30.1245 18.2495 29.6527 19.5297 29.6527 21.3819C29.6283 21.9404 29.744 22.4961 29.989 22.9973C30.2341 23.4985 30.6006 23.929 31.0545 24.2488C32.4589 25.0675 33.9728 25.6776 35.5495 26.0601C38.4068 26.9136 40.4466 27.8102 41.6686 28.7499C42.6988 29.5094 43.5263 30.5155 44.0767 31.6779C44.6272 32.8402 44.8835 34.1225 44.8225 35.4097Z" fill="#002F4B"/>
<path d="M58.6307 21.1096C51.6939 21.1096 48.2232 25.0524 48.2188 32.9379V53.9999H52.5992V44.7116H58.6307C65.5855 44.7116 69.0651 40.7871 69.0696 32.9379C69.0741 25.0887 65.5945 21.1459 58.6307 21.1096ZM63.5503 38.1336C62.5933 39.441 60.9535 40.0947 58.6307 40.0947H52.5992V32.9379C52.5992 30.5409 52.9788 28.8067 53.7381 27.7353C54.6636 26.4097 56.2945 25.7447 58.6307 25.7401C60.9669 25.7356 62.609 26.4007 63.557 27.7353C64.3163 28.8022 64.6959 30.5364 64.6959 32.9379C64.6959 35.3076 64.3051 37.044 63.5503 38.1336Z" fill="#002F4B"/>
<path d="M121.977 32.8018C124.107 30.8452 125.174 27.7196 125.178 23.425V21.1098H120.798V23.425C120.798 25.8288 120.421 27.5584 119.659 28.6276C118.736 29.9895 117.105 30.6296 114.78 30.6296H111.451V11.876H107.07V44.7118H111.451V35.2465H115.029C117.361 35.2465 118.985 35.9274 119.915 37.2008C120.67 38.2677 121.047 40.0018 121.047 42.4033V44.7118H125.428V42.4033C125.432 37.9907 124.282 34.7902 121.977 32.8018Z" fill="#002F4B"/>
<path d="M93.4395 29.6965V44.6776H97.8199V29.6965C97.784 29.1839 97.8684 28.67 98.0663 28.1967C98.2643 27.7233 98.5701 27.3039 98.9588 26.9727C99.9966 26.1691 101.877 25.7742 104.599 25.7742V21.1096C97.1595 21.1096 93.4395 23.9719 93.4395 29.6965Z" fill="#002F4B"/>
<path d="M138.153 40.0131C138.153 41.8744 137.641 43.2114 136.617 44.024C135.836 44.5976 134.886 44.8901 133.921 44.8547H128.645V27.8308H133.921C134.886 27.7954 135.836 28.0879 136.617 28.6616C137.668 29.4651 138.153 30.8134 138.153 32.686C138.253 34.0107 137.843 35.3232 137.008 36.3496C137.842 37.3763 138.252 38.6885 138.153 40.0131ZM135.93 32.686C135.981 32.0574 135.855 31.4268 135.566 30.8679C135.364 30.6328 135.109 30.451 134.823 30.3382C134.536 30.2255 134.227 30.1852 133.921 30.2209H130.895V35.1511H133.921C134.227 35.188 134.537 35.1483 134.824 35.0355C135.11 34.9227 135.365 34.7402 135.566 34.5042C135.855 33.9452 135.981 33.3147 135.93 32.686ZM135.93 40.0131C135.981 39.3845 135.855 38.754 135.566 38.195C135.368 37.9537 135.115 37.7654 134.828 37.6466C134.541 37.5279 134.23 37.4823 133.921 37.514H130.895V42.4237H133.921C134.225 42.459 134.533 42.4206 134.819 42.3117C135.105 42.2027 135.361 42.0263 135.566 41.7972C135.856 41.2385 135.982 40.6078 135.93 39.9791V40.0131ZM142.156 30.2209H139.912V27.824H142.156V30.2209ZM139.912 32.6179H142.156V44.8752H139.912V32.6179ZM154.698 44.8752H143.996V43.6562C143.996 39.5705 145.778 37.5276 149.34 37.5276C151.138 37.5276 152.146 36.6832 152.366 34.9945H143.996V32.6179H154.698V33.8164C154.698 37.9022 152.901 39.945 149.307 39.945C147.514 39.945 146.51 40.7826 146.274 42.4578H154.664L154.698 44.8752Z" fill="#002F4B"/>
<path d="M56.0839 52.4337L55.2617 47.8577H55.9895L56.5219 51.0105L57.1959 47.8577H58.0382L58.6313 51.0718L59.1772 47.8645H59.8915L59.0154 52.4337H58.2606L57.5867 49.0289L56.9128 52.4337H56.0839ZM60.9024 47.8373V49.5261C60.9791 49.382 61.0914 49.2605 61.2284 49.1734C61.3654 49.0863 61.5224 49.0365 61.6841 49.0289C61.8328 49.0255 61.9796 49.0631 62.1087 49.1379C62.227 49.2084 62.3247 49.3095 62.3917 49.4307C62.4564 49.5516 62.4997 49.683 62.5198 49.8189C62.5388 50.0454 62.5388 50.2732 62.5198 50.4998V52.4337H61.8458V50.6905C61.8568 50.4627 61.8432 50.2344 61.8054 50.0095C61.7853 49.922 61.7381 49.8433 61.6706 49.7848C61.61 49.7393 61.5372 49.7132 61.4617 49.7099C61.3508 49.7073 61.2429 49.7461 61.1585 49.8189C61.061 49.9016 60.9925 50.0138 60.963 50.1389C60.9157 50.3465 60.8954 50.5593 60.9024 50.7722V52.4337H60.2285V47.8577L60.9024 47.8373ZM64.6965 51.3919L65.3704 51.5417C65.3067 51.8219 65.1639 52.0774 64.9593 52.2771C64.7715 52.4395 64.5326 52.5289 64.2854 52.5291C64.0836 52.5385 63.8833 52.4898 63.7079 52.3885C63.5324 52.2872 63.3892 52.1376 63.2948 51.9571C63.1151 51.604 63.0292 51.2098 63.0454 50.8131C63.0187 50.3575 63.1342 49.9049 63.3756 49.5192C63.4635 49.3721 63.5869 49.25 63.7342 49.1642C63.8815 49.0785 64.048 49.0319 64.218 49.0289C64.3976 49.0253 64.575 49.0686 64.7332 49.1545C64.8913 49.2403 65.0249 49.366 65.1211 49.5192C65.3795 49.9924 65.4877 50.5344 65.4311 51.0718H63.7395C63.7335 51.2855 63.7897 51.4963 63.9013 51.6779C63.944 51.7436 64.0019 51.7977 64.07 51.8357C64.1381 51.8737 64.2144 51.8943 64.2922 51.8958C64.3421 51.8973 64.3918 51.8884 64.4382 51.8696C64.4845 51.8509 64.5266 51.8227 64.5617 51.7868C64.6456 51.6801 64.7013 51.5536 64.7235 51.4191L64.6965 51.3919ZM64.7369 50.4998C64.7433 50.2956 64.6894 50.0941 64.5819 49.921C64.5437 49.8619 64.4919 49.813 64.4308 49.7786C64.3698 49.7442 64.3014 49.7253 64.2315 49.7235C64.1578 49.7232 64.0853 49.7425 64.0214 49.7796C63.9575 49.8166 63.9044 49.8701 63.8676 49.9346C63.7586 50.1015 63.7087 50.3007 63.7261 50.4998H64.7369ZM66.6306 52.4337H65.9567V49.1243H66.5835V49.5941C66.6512 49.4313 66.7496 49.2832 66.8732 49.1583C66.9553 49.0861 67.061 49.0472 67.1698 49.0494C67.3315 49.0543 67.4875 49.1116 67.6145 49.2128L67.3921 49.9823C67.3039 49.8984 67.1896 49.8478 67.0687 49.8393C67.0244 49.8379 66.9803 49.8463 66.9395 49.8639C66.8988 49.8816 66.8623 49.908 66.8328 49.9414C66.7459 50.0456 66.6919 50.1737 66.6778 50.3091C66.6248 50.6788 66.6045 51.0526 66.6171 51.4259V52.4337H66.6306ZM69.4139 51.3919L70.0878 51.5417C70.0241 51.8219 69.8813 52.0774 69.6767 52.2771C69.4883 52.4385 69.2498 52.5277 69.0028 52.5291C68.801 52.5385 68.6007 52.4898 68.4253 52.3885C68.2498 52.2872 68.1066 52.1376 68.0121 51.9571C67.8325 51.604 67.7466 51.2098 67.7628 50.8131C67.7361 50.3575 67.8516 49.9049 68.093 49.5192C68.1828 49.3755 68.3071 49.257 68.4544 49.1749C68.6017 49.0927 68.7672 49.0496 68.9354 49.0494C69.1142 49.0449 69.2909 49.0879 69.4482 49.1739C69.6054 49.2599 69.7377 49.386 69.8317 49.5397C70.0675 50.0128 70.1568 50.5467 70.0878 51.0718H68.3895C68.3821 51.2866 68.441 51.4984 68.558 51.6779C68.6003 51.744 68.6581 51.7985 68.7263 51.8365C68.7945 51.8745 68.871 51.8949 68.9489 51.8958C68.9978 51.8976 69.0466 51.8888 69.092 51.87C69.1373 51.8512 69.1781 51.8229 69.2117 51.7868C69.298 51.6808 69.356 51.5542 69.3802 51.4191L69.4139 51.3919ZM69.4476 50.4998C69.459 50.296 69.4072 50.0936 69.2993 49.921C69.2611 49.8619 69.2093 49.813 69.1482 49.7786C69.0872 49.7442 69.0188 49.7253 68.9489 49.7235C68.8744 49.724 68.8013 49.7436 68.7365 49.7805C68.6716 49.8175 68.6172 49.8705 68.5782 49.9346C68.4754 50.1042 68.4261 50.3013 68.4367 50.4998H69.4476ZM75.0208 52.4337H74.2458L73.9358 51.3851H72.5274L72.2376 52.4337H71.4761L72.8239 47.8373H73.5787L74.9939 52.4337H75.0208ZM73.7067 50.6156L73.2215 48.9064L72.743 50.6156H73.7067ZM75.095 49.1039H75.4791V48.8519C75.4694 48.6408 75.4921 48.4295 75.5465 48.2254C75.5947 48.0896 75.6844 47.9727 75.8026 47.8917C75.94 47.7997 76.1029 47.7544 76.2676 47.7624C76.4614 47.7623 76.6535 47.7993 76.8337 47.8713L76.7393 48.4842C76.639 48.4522 76.5345 48.4361 76.4293 48.4365C76.3899 48.4324 76.3502 48.4383 76.3137 48.4538C76.2771 48.4692 76.2451 48.4938 76.2204 48.525C76.1692 48.6307 76.146 48.748 76.153 48.8655V49.1039H76.6652V49.7848H76.153V52.4337H75.4791V49.8189H75.1017V49.1379L75.095 49.1039ZM76.7393 49.1039V49.7848H77.1167V52.4337H77.7906V49.8189H78.2961V49.1379H77.7906V48.8996C77.7789 48.7818 77.8024 48.6632 77.858 48.5591C77.8823 48.5273 77.9143 48.5024 77.9509 48.4869C77.9875 48.4714 78.0275 48.4658 78.0669 48.4706C78.1721 48.4702 78.2767 48.4863 78.3769 48.5182L78.4645 47.9054C78.2847 47.832 78.0924 47.795 77.8984 47.7964C77.734 47.7903 77.5716 47.8355 77.4335 47.9258C77.3178 48.0078 77.2305 48.1246 77.1841 48.2595C77.1297 48.4635 77.107 48.6749 77.1167 48.8859V49.1379L76.7393 49.1039ZM78.5185 50.7177C78.5204 50.4279 78.5776 50.1412 78.6869 49.8733C78.7797 49.6221 78.9438 49.4042 79.1587 49.2469C79.3555 49.1054 79.591 49.0293 79.8326 49.0289C80.0183 49.0272 80.2018 49.0709 80.3672 49.1563C80.5327 49.2417 80.6753 49.3662 80.7828 49.5192C81.0407 49.8785 81.1712 50.3151 81.1534 50.7586C81.1671 51.2068 81.0345 51.6471 80.7761 52.0115C80.6703 52.1653 80.5292 52.2909 80.3649 52.3775C80.2006 52.4641 80.0179 52.5091 79.8326 52.5086C79.5921 52.5081 79.3573 52.4346 79.1587 52.2975C78.9373 52.1528 78.7673 51.9405 78.6734 51.6915C78.5549 51.3811 78.4977 51.0503 78.505 50.7177H78.5185ZM79.1924 50.7654C79.1777 51.0321 79.2409 51.2974 79.3743 51.5281C79.4191 51.6073 79.4838 51.6732 79.5619 51.719C79.6401 51.7649 79.7288 51.789 79.8191 51.789C79.9094 51.789 79.9981 51.7649 80.0763 51.719C80.1544 51.6732 80.2191 51.6073 80.2639 51.5281C80.3986 51.2954 80.4619 51.0276 80.4458 50.7586C80.4611 50.4961 80.3977 50.235 80.2639 50.0095C80.2206 49.9285 80.1564 49.8607 80.0781 49.8135C79.9998 49.7663 79.9103 49.7414 79.8191 49.7414C79.7279 49.7414 79.6384 49.7663 79.5601 49.8135C79.4818 49.8607 79.4176 49.9285 79.3743 50.0095C79.24 50.2373 79.1766 50.5007 79.1924 50.7654ZM82.3395 52.4337H81.6656V49.1243H82.2924V49.5941C82.362 49.4323 82.4602 49.2847 82.5821 49.1583C82.6648 49.076 82.7761 49.0295 82.8921 49.0289C83.0544 49.0313 83.2111 49.0889 83.3369 49.1924L83.128 49.9619C83.0418 49.8789 82.93 49.8284 82.8113 49.8189C82.7661 49.8182 82.7212 49.8269 82.6795 49.8445C82.6377 49.8621 82.6 49.8881 82.5687 49.921C82.4861 50.0278 82.4327 50.1546 82.4137 50.2887C82.3641 50.6587 82.3461 51.0324 82.3598 51.4055V52.4337H82.3395ZM85.9517 52.4337H85.325V51.9434C85.24 52.1145 85.1122 52.26 84.9543 52.3656C84.8283 52.4565 84.6778 52.5064 84.523 52.5086C84.3688 52.5019 84.2187 52.456 84.0868 52.375C83.9548 52.2941 83.8453 52.1808 83.7682 52.0456C83.5395 51.6552 83.4315 51.2046 83.4582 50.7518C83.4297 50.3039 83.5354 49.8578 83.7615 49.4716C83.8433 49.3378 83.9572 49.227 84.0927 49.1496C84.2282 49.0723 84.3809 49.0307 84.5365 49.0289C84.6887 49.0367 84.8365 49.0832 84.9661 49.1641C85.0957 49.2451 85.2029 49.3579 85.2778 49.492V47.8577H85.9517V52.4337ZM84.1456 50.6973C84.1313 50.959 84.1702 51.2209 84.2602 51.4668C84.2928 51.5647 84.3541 51.6503 84.4359 51.7124C84.5177 51.7744 84.6163 51.8098 84.7184 51.8141C84.8021 51.8095 84.883 51.7824 84.9529 51.7358C85.0228 51.6891 85.0791 51.6244 85.1161 51.5485C85.2391 51.3119 85.2951 51.0457 85.2778 50.779C85.297 50.4955 85.2436 50.2117 85.1228 49.9551C85.0829 49.8797 85.0237 49.8165 84.9514 49.7722C84.8791 49.7279 84.7963 49.704 84.7117 49.7031C84.6292 49.7058 84.5488 49.7298 84.4781 49.7727C84.4073 49.8156 84.3486 49.876 84.3074 49.9482C84.1836 50.1771 84.1274 50.4371 84.1456 50.6973ZM87.1243 50.1185L86.5111 49.9755C86.5601 49.7175 86.6845 49.4803 86.8682 49.2945C87.0731 49.1142 87.3381 49.0193 87.6095 49.0289C87.842 49.0147 88.0742 49.0617 88.2834 49.1651C88.4224 49.2477 88.5329 49.3713 88.6002 49.5192C88.6742 49.7755 88.7039 50.0427 88.6878 50.3091V51.3374C88.6829 51.5649 88.6942 51.7925 88.7215 52.0184C88.7464 52.172 88.787 52.3226 88.8428 52.4678H88.1689C88.1689 52.4065 88.1284 52.318 88.1015 52.2022V52.1001C88.0022 52.2361 87.8759 52.3497 87.7308 52.4337C87.6024 52.5039 87.459 52.5413 87.313 52.5427C87.1944 52.5473 87.0764 52.5245 86.9678 52.4761C86.8592 52.4278 86.7629 52.3551 86.6863 52.2635C86.5392 52.0679 86.4609 51.8282 86.4639 51.5825C86.4615 51.4092 86.496 51.2374 86.565 51.0786C86.6277 50.9415 86.7283 50.8256 86.8548 50.745C87.0228 50.6473 87.2046 50.5761 87.3939 50.5339C87.6263 50.492 87.8527 50.4211 88.0678 50.3228V50.2342C88.0825 50.1062 88.0488 49.9773 87.9734 49.8733C87.924 49.83 87.8659 49.7978 87.8032 49.779C87.7404 49.7602 87.6744 49.7552 87.6095 49.7644C87.5075 49.7566 87.4064 49.7883 87.3265 49.8529C87.2441 49.9449 87.1882 50.058 87.1647 50.1798L87.1243 50.1185ZM88.0274 50.8335C87.8927 50.886 87.7555 50.9315 87.6163 50.9697C87.4865 50.9952 87.3629 51.0461 87.2524 51.1195C87.2089 51.1588 87.1743 51.2071 87.151 51.2612C87.1278 51.3153 87.1163 51.3738 87.1176 51.4327C87.1142 51.549 87.1525 51.6627 87.2254 51.7528C87.2564 51.7955 87.297 51.8301 87.3439 51.8538C87.3908 51.8774 87.4426 51.8895 87.495 51.889C87.627 51.8825 87.7519 51.8267 87.8454 51.7324C87.9258 51.6523 87.9819 51.5507 88.0071 51.4395C88.0176 51.2967 88.0176 51.1533 88.0071 51.0105V50.8335H88.0274ZM89.3348 52.4337V47.8577H90.0087V49.5124C90.0835 49.3783 90.1908 49.2655 90.3204 49.1846C90.45 49.1036 90.5978 49.0571 90.75 49.0494C90.9056 49.0512 91.0583 49.0927 91.1937 49.1701C91.3292 49.2475 91.4432 49.3582 91.525 49.492C91.7502 49.8711 91.856 50.3105 91.8282 50.7518C91.8573 51.2113 91.7494 51.6691 91.5182 52.066C91.4417 52.2016 91.3322 52.3153 91.2002 52.3963C91.0681 52.4773 90.9178 52.523 90.7634 52.5291C90.6086 52.5268 90.4582 52.4769 90.3321 52.3861C90.1754 52.279 90.048 52.1338 89.9615 51.9639V52.4337H89.3348ZM90.0087 50.6973C89.9958 50.9579 90.0396 51.2182 90.1367 51.46C90.1711 51.5587 90.2335 51.645 90.3162 51.708C90.399 51.771 90.4983 51.8079 90.6017 51.8141C90.6816 51.8085 90.7588 51.7824 90.8261 51.7383C90.8933 51.6943 90.9482 51.6336 90.9858 51.5621C91.1083 51.3206 91.162 51.0495 91.1408 50.779C91.1601 50.4955 91.1067 50.2117 90.9858 49.9551C90.9474 49.8793 90.8889 49.8157 90.817 49.7713C90.7451 49.7269 90.6624 49.7034 90.5781 49.7034C90.4938 49.7034 90.4112 49.7269 90.3392 49.7713C90.2673 49.8157 90.2089 49.8793 90.1704 49.9551C90.0466 50.1839 89.9905 50.4439 90.0087 50.7041V50.6973ZM92.3808 48.6544V47.8373H93.0548V48.6544H92.3808ZM92.3808 52.4337V49.1243H93.0548V52.4337H92.3808ZM93.7287 52.4337V47.8577H94.4026V52.4337H93.7287ZM95.0765 48.6544V47.8373H95.7504V48.6544H95.0765ZM95.0765 52.4337V49.1243H95.7504V52.4337H95.0765ZM97.6171 49.1039V49.7848H97.1521V51.1467C97.1521 51.4191 97.1521 51.5757 97.1521 51.6234C97.1614 51.6649 97.1825 51.7028 97.2128 51.7324C97.2446 51.7599 97.2855 51.7745 97.3274 51.7732C97.4237 51.7636 97.5174 51.7359 97.6037 51.6915L97.6576 52.3725C97.4947 52.4635 97.3113 52.5104 97.1252 52.5086C97.01 52.5104 96.8963 52.4822 96.795 52.4269C96.7052 52.3811 96.6304 52.3102 96.5793 52.2226C96.5255 52.1143 96.4934 51.9963 96.485 51.8754C96.4741 51.6689 96.4741 51.4621 96.485 51.2557V49.8257H96.1682V49.1447H96.485V48.4638L97.1589 47.9462V49.1243L97.6171 49.1039ZM97.7654 49.1039H98.4865L99.0998 51.4668L99.6928 49.1039H100.367L99.4637 52.3044L99.3019 52.8832C99.259 53.0377 99.2026 53.1881 99.1334 53.3326C99.0874 53.4262 99.0232 53.5096 98.9448 53.5777C98.8714 53.6462 98.784 53.6974 98.6887 53.7276C98.5935 53.7643 98.4937 53.7872 98.3921 53.7957C98.2623 53.7943 98.1332 53.776 98.008 53.7412L97.9474 53.0602C98.0419 53.0858 98.1393 53.0995 98.2371 53.1011C98.3064 53.1046 98.3754 53.0895 98.437 53.0571C98.4986 53.0248 98.5506 52.9765 98.5876 52.9172C98.6693 52.776 98.7262 52.6217 98.756 52.461L97.7856 49.1243L97.7654 49.1039ZM102.233 52.4337V47.8577H103.298L103.938 50.9901L104.572 47.8577H105.643V52.4337H104.97V48.8383L104.296 52.4542H103.622L102.948 48.8383V52.4337H102.233ZM107.827 51.3714L108.501 51.5213C108.437 51.8015 108.294 52.0569 108.09 52.2567C107.902 52.4191 107.663 52.5084 107.416 52.5086C107.214 52.5181 107.014 52.4693 106.838 52.368C106.663 52.2668 106.52 52.1171 106.425 51.9366C106.246 51.5835 106.16 51.1893 106.176 50.7926C106.149 50.3371 106.265 49.8845 106.506 49.4988C106.596 49.3555 106.721 49.2374 106.868 49.1553C107.015 49.0732 107.18 49.0298 107.348 49.0289C107.528 49.0253 107.705 49.0686 107.864 49.1545C108.022 49.2403 108.155 49.366 108.251 49.5192C108.501 49.9786 108.608 50.5025 108.561 51.0242H106.87C106.86 51.2382 106.917 51.45 107.032 51.6302C107.074 51.6963 107.132 51.7508 107.2 51.7888C107.268 51.8269 107.345 51.8472 107.423 51.8481C107.472 51.8496 107.522 51.8407 107.569 51.822C107.615 51.8032 107.657 51.775 107.692 51.7392C107.773 51.6308 107.829 51.5049 107.854 51.3714H107.827ZM107.867 50.4794C107.874 50.2752 107.82 50.0737 107.712 49.9006C107.674 49.8414 107.622 49.7926 107.561 49.7581C107.5 49.7237 107.432 49.7049 107.362 49.7031C107.288 49.7027 107.216 49.7221 107.152 49.7591C107.088 49.7962 107.035 49.8497 106.998 49.9142C106.889 50.081 106.839 50.2802 106.856 50.4794H107.867ZM110.563 51.3714L111.237 51.5213C111.173 51.8015 111.03 52.0569 110.826 52.2567C110.637 52.418 110.399 52.5072 110.152 52.5086C109.954 52.5174 109.758 52.4705 109.586 52.3731C109.413 52.2756 109.271 52.1316 109.175 51.9571C108.995 51.604 108.909 51.2098 108.925 50.8131C108.899 50.3575 109.014 49.9049 109.256 49.5192C109.346 49.3759 109.47 49.2578 109.617 49.1757C109.765 49.0936 109.93 49.0502 110.098 49.0494C110.277 49.0449 110.454 49.0879 110.611 49.1739C110.768 49.2599 110.9 49.386 110.994 49.5397C111.249 49.9971 111.359 50.5221 111.311 51.0446H109.62C109.607 51.259 109.664 51.4718 109.781 51.6506C109.824 51.7167 109.881 51.7712 109.95 51.8093C110.018 51.8473 110.094 51.8677 110.172 51.8685C110.222 51.87 110.272 51.8611 110.318 51.8424C110.365 51.8237 110.407 51.7955 110.442 51.7596C110.523 51.6512 110.578 51.5254 110.603 51.3919L110.563 51.3714ZM110.597 50.4794C110.608 50.2756 110.556 50.0732 110.448 49.9006C110.41 49.8414 110.358 49.7926 110.297 49.7581C110.236 49.7237 110.168 49.7049 110.098 49.7031C110.024 49.7027 109.952 49.7221 109.888 49.7591C109.824 49.7962 109.771 49.8497 109.734 49.9142C109.625 50.081 109.575 50.2802 109.593 50.4794H110.597ZM112.996 49.1175V49.7984H112.544V51.1603C112.544 51.4327 112.544 51.5894 112.544 51.637C112.556 51.6774 112.577 51.7146 112.605 51.746C112.637 51.7724 112.678 51.7869 112.72 51.7868C112.816 51.7781 112.91 51.7503 112.996 51.7051L113.05 52.3861C112.887 52.478 112.704 52.525 112.517 52.5223C112.402 52.524 112.288 52.4959 112.187 52.4405C112.097 52.3947 112.023 52.3238 111.971 52.2363C111.921 52.1268 111.889 52.0093 111.877 51.889C111.866 51.6826 111.866 51.4757 111.877 51.2693V49.8257H111.567V49.1447H111.87V48.4638L112.544 47.9462V49.1243L112.996 49.1175ZM113.225 51.494L113.899 51.3578C113.913 51.5052 113.975 51.6439 114.074 51.7528C114.124 51.7985 114.183 51.8336 114.246 51.8558C114.31 51.8781 114.378 51.887 114.445 51.8822C114.588 51.8931 114.73 51.8493 114.842 51.7596C114.873 51.7283 114.896 51.6909 114.911 51.6498C114.926 51.6088 114.933 51.565 114.93 51.5213C114.934 51.4628 114.917 51.4049 114.883 51.3578C114.818 51.2986 114.739 51.2586 114.654 51.2421C114.285 51.163 113.934 51.0177 113.616 50.8131C113.513 50.7189 113.433 50.6028 113.38 50.4732C113.328 50.3436 113.305 50.2038 113.313 50.064C113.303 49.9215 113.326 49.7788 113.378 49.646C113.43 49.5132 113.51 49.3937 113.613 49.296C113.716 49.1984 113.839 49.125 113.974 49.0812C114.108 49.0374 114.251 49.0242 114.391 49.0426C114.522 49.0235 114.657 49.0312 114.785 49.0652C114.914 49.0992 115.035 49.159 115.14 49.2408C115.246 49.3227 115.334 49.425 115.4 49.5418C115.465 49.6586 115.507 49.7875 115.523 49.921L114.883 50.0776C114.863 49.9638 114.809 49.859 114.728 49.778C114.637 49.704 114.521 49.6676 114.404 49.6759C114.269 49.6605 114.133 49.6943 114.02 49.7712C113.996 49.7933 113.976 49.8207 113.963 49.8513C113.951 49.8819 113.945 49.915 113.946 49.9482C113.945 49.9788 113.95 50.0092 113.962 50.0374C113.974 50.0657 113.991 50.091 114.013 50.1117C114.21 50.2229 114.421 50.3055 114.64 50.3568C114.921 50.42 115.182 50.5561 115.395 50.7518C115.473 50.8454 115.533 50.9537 115.57 51.0705C115.607 51.1874 115.621 51.3105 115.611 51.4327C115.615 51.7226 115.509 52.0032 115.314 52.2158C115.202 52.3327 115.067 52.4232 114.916 52.4809C114.766 52.5386 114.605 52.562 114.445 52.5495C114.144 52.5644 113.848 52.4648 113.616 52.2703C113.408 52.0699 113.268 51.8074 113.218 51.5213L113.225 51.494ZM117.585 52.4474V47.8577H118.724C119.009 47.8419 119.294 47.8648 119.573 47.9258C119.791 48.0071 119.971 48.1673 120.079 48.3752C120.23 48.6494 120.302 48.9607 120.288 49.2741C120.291 49.5068 120.25 49.7381 120.166 49.9551C120.102 50.1275 120.001 50.2834 119.87 50.4113C119.765 50.5107 119.638 50.5831 119.499 50.6224C119.256 50.6764 119.007 50.6993 118.758 50.6905H118.293V52.4337L117.585 52.4474ZM118.259 48.6272V49.9278H118.65C118.841 49.9422 119.033 49.919 119.216 49.8597C119.312 49.8106 119.39 49.7319 119.438 49.635C119.494 49.5232 119.522 49.3993 119.519 49.2741C119.525 49.129 119.485 48.9859 119.405 48.8655C119.34 48.763 119.239 48.6898 119.122 48.6612C118.949 48.6444 118.775 48.6444 118.603 48.6612L118.259 48.6272ZM121.521 52.4337H120.847V49.1243H121.474V49.5941C121.541 49.4313 121.64 49.2832 121.763 49.1583C121.843 49.0871 121.947 49.0483 122.053 49.0494C122.215 49.0517 122.372 49.1093 122.498 49.2128L122.289 49.9823C122.204 49.8984 122.091 49.8477 121.972 49.8393C121.927 49.8386 121.882 49.8473 121.841 49.8649C121.799 49.8825 121.761 49.9085 121.73 49.9414C121.65 50.0498 121.597 50.1759 121.575 50.3091C121.529 50.6795 121.511 51.0528 121.521 51.4259V52.4337ZM122.653 50.7382C122.655 50.4484 122.712 50.1617 122.821 49.8938C122.917 49.6441 123.081 49.4269 123.293 49.2673C123.49 49.1259 123.726 49.0497 123.967 49.0494C124.153 49.0477 124.336 49.0913 124.502 49.1767C124.667 49.2621 124.81 49.3866 124.917 49.5397C125.175 49.899 125.306 50.3355 125.288 50.779C125.304 51.2264 125.173 51.6666 124.917 52.032C124.81 52.1845 124.669 52.3092 124.505 52.3956C124.341 52.4821 124.159 52.5278 123.974 52.5291C123.733 52.5286 123.499 52.455 123.3 52.318C123.083 52.168 122.915 51.9574 122.815 51.7119C122.696 51.4016 122.639 51.0707 122.646 50.7382H122.653ZM123.327 50.7858C123.312 51.0526 123.376 51.3178 123.509 51.5485C123.554 51.6277 123.618 51.6936 123.696 51.7395C123.775 51.7853 123.863 51.8094 123.954 51.8094C124.044 51.8094 124.133 51.7853 124.211 51.7395C124.289 51.6936 124.354 51.6277 124.398 51.5485C124.533 51.3158 124.596 51.048 124.58 50.779C124.596 50.5165 124.532 50.2555 124.398 50.03C124.355 49.9489 124.291 49.8811 124.213 49.8339C124.134 49.7867 124.045 49.7618 123.954 49.7618C123.862 49.7618 123.773 49.7867 123.695 49.8339C123.616 49.8811 123.552 49.9489 123.509 50.03C123.375 50.2577 123.311 50.5211 123.327 50.7858ZM125.51 49.1243H125.881V48.8723C125.873 48.6609 125.898 48.4495 125.955 48.2458C125.997 48.1085 126.085 47.9904 126.205 47.9122C126.342 47.8202 126.505 47.7748 126.67 47.7828C126.863 47.7814 127.056 47.8184 127.236 47.8917L127.148 48.5046C127.048 48.4732 126.943 48.4571 126.838 48.4569C126.798 48.4529 126.757 48.4588 126.719 48.4742C126.682 48.4896 126.648 48.5141 126.622 48.5455C126.573 48.6518 126.553 48.7691 126.562 48.8859V49.1243H127.067V49.8052H126.562V52.4337H125.888V49.8189H125.517V49.1379L125.51 49.1243ZM128.927 51.3919L129.601 51.5417C129.537 51.8219 129.395 52.0774 129.19 52.2771C129.002 52.4395 128.763 52.5289 128.516 52.5291C128.314 52.5385 128.114 52.4898 127.938 52.3885C127.763 52.2872 127.62 52.1376 127.525 51.9571C127.346 51.604 127.26 51.2098 127.276 50.8131C127.249 50.3575 127.365 49.9049 127.606 49.5192C127.697 49.3759 127.821 49.2578 127.968 49.1757C128.115 49.0936 128.281 49.0502 128.449 49.0494C128.628 49.0458 128.806 49.089 128.964 49.1749C129.122 49.2608 129.256 49.3864 129.352 49.5397C129.601 49.999 129.709 50.523 129.662 51.0446H127.97C127.964 51.2583 128.02 51.469 128.132 51.6506C128.175 51.7163 128.233 51.7705 128.301 51.8085C128.369 51.8464 128.445 51.8671 128.523 51.8685C128.573 51.87 128.622 51.8611 128.669 51.8424C128.715 51.8237 128.757 51.7955 128.792 51.7596C128.873 51.6512 128.929 51.5254 128.954 51.3919H128.927ZM128.968 50.4998C128.974 50.2956 128.92 50.0941 128.813 49.921C128.774 49.8619 128.723 49.813 128.661 49.7786C128.6 49.7442 128.532 49.7253 128.462 49.7235C128.388 49.7232 128.316 49.7425 128.252 49.7796C128.188 49.8166 128.135 49.8701 128.098 49.9346C127.989 50.1015 127.939 50.3007 127.957 50.4998H128.968ZM129.951 51.5008L130.625 51.3646C130.64 51.512 130.701 51.6507 130.801 51.7596C130.851 51.8053 130.909 51.8404 130.973 51.8626C131.037 51.8849 131.104 51.8938 131.171 51.889C131.312 51.9002 131.452 51.8563 131.562 51.7664C131.592 51.7351 131.616 51.6977 131.631 51.6566C131.646 51.6156 131.652 51.5718 131.65 51.5281C131.654 51.4696 131.637 51.4117 131.603 51.3646C131.54 51.3065 131.463 51.2665 131.38 51.2489C131.011 51.1712 130.659 51.0258 130.342 50.8199C130.24 50.7257 130.159 50.6096 130.107 50.48C130.054 50.3504 130.031 50.2106 130.039 50.0708C130.032 49.803 130.126 49.5426 130.302 49.3422C130.408 49.2375 130.535 49.1572 130.675 49.1066C130.814 49.0561 130.963 49.0366 131.111 49.0494C131.389 49.0271 131.667 49.1069 131.892 49.2741C132.083 49.4539 132.207 49.6942 132.243 49.9551L131.609 50.1117C131.59 49.9979 131.536 49.8931 131.454 49.8121C131.36 49.7394 131.243 49.7031 131.124 49.7099C130.989 49.6969 130.854 49.7305 130.74 49.8052C130.716 49.8282 130.698 49.8557 130.685 49.8861C130.672 49.9165 130.666 49.9493 130.666 49.9823C130.665 50.0128 130.67 50.0433 130.682 50.0715C130.693 50.0997 130.711 50.125 130.733 50.1457C130.932 50.2578 131.145 50.3404 131.367 50.3909C131.647 50.4557 131.907 50.5916 132.121 50.7858C132.278 50.9759 132.353 51.2208 132.33 51.4668C132.338 51.7559 132.234 52.0366 132.041 52.2499C131.929 52.3667 131.793 52.4572 131.643 52.5149C131.493 52.5726 131.332 52.596 131.171 52.5835C130.87 52.5998 130.574 52.5 130.342 52.3044C130.132 52.1057 129.992 51.8424 129.945 51.5553L129.951 51.5008ZM132.694 51.5008L133.368 51.3646C133.384 51.5129 133.448 51.6516 133.55 51.7596C133.6 51.8053 133.659 51.8404 133.722 51.8626C133.786 51.8849 133.854 51.8938 133.921 51.889C134.062 51.9002 134.202 51.8563 134.312 51.7664C134.342 51.7351 134.365 51.6977 134.381 51.6566C134.396 51.6156 134.402 51.5718 134.399 51.5281C134.403 51.4696 134.387 51.4117 134.352 51.3646C134.29 51.3065 134.213 51.2665 134.13 51.2489C133.761 51.1712 133.409 51.0258 133.092 50.8199C132.989 50.7257 132.909 50.6096 132.856 50.48C132.804 50.3504 132.781 50.2106 132.789 50.0708C132.782 49.803 132.876 49.5426 133.051 49.3422C133.158 49.2375 133.285 49.1572 133.424 49.1066C133.564 49.0561 133.712 49.0366 133.86 49.0494C134.139 49.0271 134.416 49.1069 134.642 49.2741C134.832 49.4539 134.956 49.6942 134.992 49.9551L134.359 50.1117C134.34 49.9979 134.285 49.8931 134.204 49.8121C134.109 49.7394 133.992 49.7031 133.874 49.7099C133.739 49.6969 133.603 49.7305 133.49 49.8052C133.466 49.8282 133.447 49.8557 133.435 49.8861C133.422 49.9165 133.415 49.9493 133.415 49.9823C133.414 50.0128 133.42 50.0433 133.431 50.0715C133.443 50.0997 133.461 50.125 133.483 50.1457C133.679 50.2572 133.89 50.3398 134.11 50.3909C134.39 50.4574 134.649 50.5931 134.864 50.7858C135.02 50.9759 135.096 51.2208 135.073 51.4668C135.077 51.6193 135.05 51.771 134.992 51.912C134.935 52.0531 134.849 52.1804 134.739 52.2857C134.63 52.3909 134.5 52.4718 134.358 52.5232C134.216 52.5745 134.065 52.5951 133.914 52.5835C133.613 52.5998 133.317 52.5 133.085 52.3044C132.875 52.1057 132.735 51.8424 132.688 51.5553L132.694 51.5008ZM135.673 48.6749V47.8577H136.347V48.6749H135.673ZM135.673 52.4542V49.1243H136.347V52.4337L135.673 52.4542ZM136.886 50.7382C136.885 50.448 136.942 50.1606 137.055 49.8938C137.145 49.6413 137.31 49.4228 137.526 49.2673C137.779 49.0876 138.092 49.0155 138.397 49.0665C138.702 49.1174 138.975 49.2873 139.157 49.5397C139.401 49.9084 139.532 50.3421 139.532 50.7858C139.532 51.2295 139.401 51.6632 139.157 52.032C138.981 52.2851 138.712 52.4573 138.41 52.5109C138.108 52.5645 137.798 52.4951 137.546 52.318C137.325 52.1732 137.155 51.9609 137.061 51.7119C136.94 51.4025 136.882 51.071 136.893 50.7382H136.886ZM137.56 50.7858C137.545 51.0526 137.609 51.3178 137.742 51.5485C137.787 51.6277 137.851 51.6936 137.93 51.7395C138.008 51.7853 138.096 51.8094 138.187 51.8094C138.277 51.8094 138.366 51.7853 138.444 51.7395C138.522 51.6936 138.587 51.6277 138.631 51.5485C138.764 51.3151 138.825 51.0474 138.807 50.779C138.824 50.5173 138.763 50.2564 138.631 50.03C138.588 49.9489 138.524 49.8811 138.446 49.8339C138.367 49.7867 138.278 49.7618 138.187 49.7618C138.096 49.7618 138.006 49.7867 137.928 49.8339C137.849 49.8811 137.785 49.9489 137.742 50.03C137.608 50.2577 137.544 50.5211 137.56 50.7858ZM142.378 52.4337H141.705V50.7313C141.713 50.5036 141.699 50.2755 141.664 50.0504C141.64 49.9572 141.591 49.8725 141.523 49.8052C141.458 49.7467 141.374 49.715 141.287 49.7167C141.17 49.7158 141.056 49.7596 140.97 49.8393C140.877 49.9299 140.811 50.0457 140.781 50.173C140.734 50.4242 140.716 50.6802 140.727 50.9356V52.4337H140.053V49.1243H140.68V49.6146C140.753 49.4474 140.87 49.304 141.019 49.2006C141.168 49.0971 141.342 49.0377 141.523 49.0289C141.666 49.028 141.807 49.0631 141.934 49.1311C142.047 49.1964 142.143 49.2902 142.21 49.4035C142.274 49.5181 142.319 49.6422 142.345 49.7712C142.373 49.9673 142.385 50.1655 142.378 50.3636V52.4065V52.4337ZM143.571 50.1185L142.958 49.9755C143.007 49.7175 143.131 49.4803 143.315 49.2945C143.527 49.1248 143.794 49.0421 144.063 49.063C144.296 49.0488 144.528 49.0957 144.737 49.1992C144.876 49.2817 144.987 49.4053 145.054 49.5533C145.128 49.8095 145.158 50.0768 145.141 50.3432V51.3714C145.125 51.5981 145.125 51.8257 145.141 52.0524C145.166 52.2061 145.207 52.3567 145.263 52.5018H144.589C144.589 52.4405 144.548 52.352 144.521 52.2363V52.1341C144.422 52.2701 144.296 52.3837 144.151 52.4678C144.022 52.5379 143.879 52.5753 143.733 52.5767C143.614 52.5813 143.496 52.5586 143.388 52.5102C143.279 52.4618 143.183 52.3891 143.106 52.2975C142.959 52.1019 142.881 51.8623 142.884 51.6166C142.882 51.4432 142.916 51.2714 142.985 51.1127C143.048 50.9755 143.148 50.8597 143.275 50.779C143.443 50.6814 143.625 50.6102 143.814 50.5679C144.046 50.5261 144.273 50.4552 144.488 50.3568V50.2683C144.503 50.1403 144.469 50.0113 144.393 49.9074C144.344 49.864 144.286 49.8318 144.223 49.813C144.16 49.7943 144.094 49.7893 144.03 49.7984C143.927 49.7907 143.826 49.8223 143.746 49.887C143.664 49.979 143.608 50.092 143.585 50.2138L143.571 50.1185ZM144.474 50.8335C144.34 50.886 144.202 50.9315 144.063 50.9697C143.933 50.9952 143.81 51.0461 143.699 51.1195C143.656 51.1588 143.621 51.2071 143.598 51.2612C143.575 51.3153 143.563 51.3738 143.565 51.4327C143.561 51.549 143.599 51.6627 143.672 51.7528C143.703 51.7955 143.744 51.8301 143.791 51.8538C143.838 51.8774 143.89 51.8895 143.942 51.889C144.074 51.8825 144.199 51.8267 144.292 51.7324C144.373 51.6523 144.429 51.5507 144.454 51.4395C144.465 51.2967 144.465 51.1533 144.454 51.0105V50.8335H144.474ZM145.822 52.4337V47.8577H146.496V52.4337H145.822ZM147.17 48.6544V47.8373H147.844V48.6544H147.17ZM147.17 52.4337V49.1243H147.844V52.4337H147.17ZM148.302 51.4804L148.976 51.3442C148.99 51.4916 149.052 51.6303 149.151 51.7392C149.201 51.7849 149.26 51.82 149.323 51.8422C149.387 51.8644 149.455 51.8734 149.522 51.8685C149.665 51.8794 149.807 51.8357 149.92 51.746C149.95 51.7146 149.973 51.6772 149.988 51.6362C150.003 51.5951 150.01 51.5513 150.007 51.5076C150.008 51.4496 149.991 51.3928 149.96 51.3442C149.896 51.285 149.816 51.2449 149.731 51.2284C149.362 51.1494 149.011 51.0041 148.693 50.7994C148.59 50.7053 148.51 50.5892 148.457 50.4596C148.405 50.33 148.382 50.1902 148.39 50.0504C148.381 49.9079 148.403 49.7651 148.455 49.6324C148.507 49.4996 148.587 49.3801 148.69 49.2824C148.793 49.1848 148.916 49.1114 149.051 49.0676C149.185 49.0237 149.328 49.0106 149.468 49.0289C149.6 49.0098 149.734 49.0175 149.862 49.0516C149.991 49.0856 150.112 49.1453 150.217 49.2272C150.323 49.309 150.411 49.4114 150.477 49.5282C150.542 49.645 150.584 49.7739 150.6 49.9074L149.926 50.064C149.907 49.9502 149.853 49.8454 149.771 49.7644C149.68 49.6904 149.564 49.654 149.448 49.6622C149.313 49.6469 149.176 49.6807 149.064 49.7576C149.038 49.7794 149.018 49.8065 149.004 49.8371C148.99 49.8677 148.983 49.9009 148.983 49.9346C148.984 49.9958 149.008 50.0543 149.05 50.0981C149.25 50.2074 149.463 50.2898 149.684 50.3432C149.965 50.4063 150.225 50.5425 150.438 50.7382C150.517 50.8318 150.576 50.9401 150.613 51.0569C150.65 51.1738 150.664 51.2969 150.654 51.4191C150.659 51.709 150.553 51.9896 150.358 52.2022C150.246 52.3191 150.11 52.4096 149.96 52.4673C149.81 52.5249 149.648 52.5484 149.488 52.5359C149.187 52.5508 148.891 52.4511 148.659 52.2567C148.451 52.0563 148.312 51.7938 148.262 51.5076L148.302 51.4804ZM151.234 49.1039H151.86V49.5601C151.934 49.4082 152.047 49.2789 152.187 49.1856C152.326 49.0922 152.488 49.0382 152.656 49.0289C152.808 49.0224 152.957 49.068 153.08 49.1583C153.213 49.2624 153.316 49.4014 153.377 49.5601C153.471 49.4037 153.595 49.2673 153.741 49.1583C153.863 49.073 154.009 49.0278 154.158 49.0289C154.33 49.0229 154.499 49.0757 154.637 49.1788C154.774 49.2917 154.875 49.4434 154.927 49.6146C154.981 49.8372 155.004 50.0665 154.994 50.2955V52.4337H154.32V50.5271C154.334 50.3109 154.309 50.094 154.246 49.887C154.223 49.8309 154.183 49.7834 154.133 49.7505C154.082 49.7177 154.023 49.7012 153.963 49.7031C153.862 49.7024 153.766 49.7415 153.693 49.8121C153.603 49.9035 153.539 50.0193 153.511 50.1457C153.47 50.3702 153.452 50.5984 153.458 50.8267V52.4337H152.784V50.6292C152.794 50.4198 152.782 50.2098 152.75 50.0027C152.733 49.9225 152.693 49.849 152.635 49.7916C152.608 49.767 152.576 49.7482 152.541 49.7365C152.506 49.7248 152.47 49.7204 152.433 49.7235C152.328 49.7214 152.227 49.7605 152.15 49.8325C152.063 49.9183 152 50.0266 151.968 50.1457C151.926 50.3701 151.908 50.5984 151.914 50.8267V52.4337H151.24L151.234 49.1039Z" fill="#002F4B"/>
<path d="M78.0443 43.1999L84.3656 40.1765L78.0443 35.4642L86.1313 37.8067L85.5989 30.9971L88.5776 36.7717L89.9254 35.0897V28.1235C89.9254 23.4476 86.931 21.1096 80.9421 21.1096C77.5187 21.1096 75.0477 21.9472 73.5291 23.6224C72.4719 24.8704 71.9185 26.475 71.9791 28.1167H76.3258C76.3015 27.8326 76.341 27.5467 76.4414 27.2802C76.5417 27.0137 76.7003 26.7736 76.9054 26.5777C77.5793 25.9876 78.9271 25.6925 80.9489 25.6925C82.9706 25.6925 84.3185 25.9853 84.9924 26.5777C85.2008 26.773 85.3625 27.0137 85.4653 27.2815C85.568 27.5493 85.6091 27.8373 85.5854 28.1235C85.608 28.4013 85.5675 28.6807 85.4671 28.9403C85.3666 29.1999 85.2089 29.4329 85.0058 29.6216C84.3319 30.214 82.9841 30.5068 80.9624 30.5068C77.5389 30.5068 75.0679 31.3444 73.5493 33.0196C72.4921 34.2677 71.9388 35.8722 71.9993 37.5139C71.9361 39.156 72.4898 40.7615 73.5493 42.0082C75.0499 43.6834 77.5209 44.521 80.9624 44.521C82.4394 44.5513 83.9129 44.3632 85.3361 43.9626L85.5113 42.5666L78.0443 43.1999Z" fill="#002F4B"/>
<path d="M75.904 0H60.4512V14.9811C62.1966 20.4288 67.7362 19.5435 67.7362 19.5435C66.6569 18.9369 65.8489 17.9352 65.4786 16.7448C64.2386 12.9382 67.0083 9.13165 67.0083 9.13165C71.1664 3.24136 76.8273 4.86204 76.8273 4.86204C80.399 6.11501 78.9433 9.13165 78.9433 9.13165C77.7034 12.373 70.0477 13.8439 70.0477 13.8439C70.634 16.2 72.1638 16.7924 72.1638 16.7924C76.0994 18.9306 79.7453 14.7496 79.7453 14.7496V4.34451C79.7054 3.28183 79.2999 2.26648 78.5988 1.47343C77.8976 0.680382 76.9446 0.159309 75.904 0V0Z" fill="#002F4B"/>
<path d="M65.4044 0H60.4512V9.35637C61.5205 8.37971 62.6935 7.52558 63.9488 6.80958L64.0229 6.73468V6.70063C63.5849 4.86204 65.4044 0 65.4044 0Z" fill="#002F4B"/>
<path d="M64.0195 6.73473C64.0667 7.10926 64.5182 10.4051 65.6234 12.0054C65.6234 12.0054 67.3689 6.77559 71.5269 5.37963C71.5269 5.37963 68.4269 4.50119 64.0195 6.73473Z" fill="#002F4B"/>
<path d="M70.3779 7.94686C70.9574 7.32718 73.0735 5.40007 75.9107 6.18998C76.4664 6.32896 76.9486 6.67732 77.2585 7.16375C77.6022 7.74938 77.737 8.62781 76.6992 9.73097C76.5532 9.88021 76.3877 10.0085 76.2072 10.1123C74.8517 10.909 73.3966 11.5182 71.8807 11.9237C71.6591 11.9694 71.4322 11.9831 71.2068 11.9645C70.2566 11.876 68.1202 11.3448 70.142 8.27372C70.2135 8.15968 70.2923 8.05049 70.3779 7.94686Z" fill="#FF5B2E"/>
</g>
<defs>
<clipPath id="clip0_558_55">
<rect width="175" height="54" fill="white"/>
</clipPath>
</defs>
</svg>
